<svg width="461" height="379" viewBox="0 0 461 379" fill="none" xmlns="http://www.w3.org/2000/svg">
<path d="M0 9.18843C0 4.11379 4.11381 0 9.18845 0H451.812C456.886 0 461 4.11381 461 9.18845V378.564H0V9.18843Z" fill="white"/>
<path d="M116.441 38.3622C116.044 38.3622 115.737 38.2533 115.519 38.0356C115.314 37.8051 115.212 37.4914 115.212 37.0944V25.9152C115.212 25.5054 115.321 25.1981 115.538 24.9932C115.756 24.7755 116.063 24.6666 116.46 24.6666H121.09C122.575 24.6666 123.721 25.038 124.528 25.7807C125.335 26.5234 125.738 27.5607 125.738 28.8925C125.738 30.2242 125.335 31.2679 124.528 32.0234C123.721 32.7661 122.575 33.1375 121.09 33.1375H117.671V37.0944C117.671 37.4914 117.568 37.8051 117.363 38.0356C117.158 38.2533 116.851 38.3622 116.441 38.3622ZM117.671 31.1975H120.705C121.576 31.1975 122.236 31.0054 122.684 30.6212C123.132 30.2242 123.356 29.648 123.356 28.8925C123.356 28.1369 123.132 27.5671 122.684 27.1829C122.236 26.7987 121.576 26.6067 120.705 26.6067H117.671V31.1975ZM128.634 38.3622C128.237 38.3622 127.929 38.2597 127.712 38.0548C127.507 37.8371 127.404 37.5298 127.404 37.1328V29.8721C127.404 29.4751 127.507 29.1742 127.712 28.9693C127.917 28.7644 128.205 28.662 128.576 28.662C128.947 28.662 129.235 28.7644 129.44 28.9693C129.645 29.1742 129.748 29.4751 129.748 29.8721V31.0822H129.556C129.735 30.3139 130.087 29.7312 130.612 29.3342C131.137 28.9373 131.835 28.7004 132.706 28.6235C132.975 28.5979 133.186 28.6684 133.34 28.8348C133.506 28.9885 133.602 29.2318 133.628 29.5647C133.653 29.8849 133.577 30.1474 133.397 30.3523C133.231 30.5444 132.975 30.6596 132.629 30.698L132.206 30.7365C131.425 30.8133 130.836 31.0566 130.439 31.4664C130.042 31.8633 129.844 32.4268 129.844 33.1567V37.1328C129.844 37.5298 129.741 37.8371 129.536 38.0548C129.332 38.2597 129.031 38.3622 128.634 38.3622ZM139.485 38.4006C138.423 38.4006 137.507 38.2021 136.739 37.8051C135.97 37.4081 135.375 36.8447 134.952 36.1148C134.543 35.3849 134.338 34.5205 134.338 33.5217C134.338 32.5484 134.536 31.6969 134.933 30.967C135.343 30.237 135.9 29.6672 136.604 29.2574C137.321 28.8348 138.134 28.6235 139.044 28.6235C139.71 28.6235 140.305 28.7324 140.83 28.9501C141.368 29.1678 141.822 29.4815 142.194 29.8913C142.578 30.3011 142.866 30.8005 143.058 31.3895C143.263 31.9658 143.366 32.6189 143.366 33.3488C143.366 33.5793 143.282 33.7586 143.116 33.8866C142.962 34.0019 142.738 34.0595 142.444 34.0595H136.278V32.6765H141.675L141.368 32.9646C141.368 32.3756 141.278 31.8826 141.099 31.4856C140.933 31.0886 140.683 30.7877 140.35 30.5828C140.03 30.3651 139.626 30.2562 139.14 30.2562C138.602 30.2562 138.141 30.3843 137.757 30.6404C137.385 30.8837 137.097 31.2359 136.892 31.6969C136.7 32.1451 136.604 32.6829 136.604 33.3104V33.4448C136.604 34.4949 136.848 35.2824 137.334 35.8075C137.834 36.3197 138.563 36.5758 139.524 36.5758C139.857 36.5758 140.228 36.5374 140.638 36.4605C141.061 36.3709 141.458 36.2236 141.829 36.0187C142.098 35.8651 142.335 35.8011 142.54 35.8267C142.744 35.8395 142.905 35.9099 143.02 36.038C143.148 36.166 143.225 36.3261 143.25 36.5182C143.276 36.6974 143.238 36.8831 143.135 37.0752C143.045 37.2673 142.885 37.4338 142.655 37.5746C142.207 37.8563 141.688 38.0676 141.099 38.2085C140.523 38.3366 139.985 38.4006 139.485 38.4006ZM146.538 41.8197C146.154 41.8197 145.859 41.7172 145.654 41.5123C145.45 41.3074 145.347 41.0065 145.347 40.6095V29.8721C145.347 29.4751 145.45 29.1742 145.654 28.9693C145.859 28.7644 146.147 28.662 146.519 28.662C146.903 28.662 147.197 28.7644 147.402 28.9693C147.607 29.1742 147.71 29.4751 147.71 29.8721V31.3703L147.498 30.7941C147.69 30.141 148.081 29.616 148.67 29.219C149.272 28.822 149.97 28.6235 150.764 28.6235C151.583 28.6235 152.3 28.822 152.915 29.219C153.543 29.616 154.029 30.1794 154.375 30.9093C154.721 31.6264 154.894 32.4908 154.894 33.5025C154.894 34.5013 154.721 35.3721 154.375 36.1148C154.029 36.8447 153.549 37.4081 152.934 37.8051C152.32 38.2021 151.596 38.4006 150.764 38.4006C149.983 38.4006 149.298 38.2085 148.709 37.8243C148.119 37.4274 147.723 36.9151 147.518 36.2877H147.748V40.6095C147.748 41.0065 147.639 41.3074 147.422 41.5123C147.217 41.7172 146.922 41.8197 146.538 41.8197ZM150.092 36.5758C150.565 36.5758 150.982 36.4605 151.34 36.23C151.699 35.9995 151.974 35.6602 152.166 35.212C152.371 34.751 152.473 34.1811 152.473 33.5025C152.473 32.478 152.256 31.7161 151.82 31.2167C151.385 30.7044 150.809 30.4483 150.092 30.4483C149.618 30.4483 149.202 30.5636 148.843 30.7941C148.484 31.0118 148.203 31.3511 147.998 31.8121C147.806 32.2603 147.71 32.8238 147.71 33.5025C147.71 34.5141 147.927 35.2824 148.363 35.8075C148.798 36.3197 149.374 36.5758 150.092 36.5758ZM160.037 38.4006C159.358 38.4006 158.75 38.2725 158.212 38.0164C157.687 37.7475 157.271 37.3889 156.964 36.9407C156.669 36.4926 156.522 35.9867 156.522 35.4233C156.522 34.7318 156.701 34.1876 157.06 33.7906C157.418 33.3808 158.001 33.0863 158.808 32.907C159.615 32.7277 160.697 32.6381 162.054 32.6381H163.014V34.0211H162.073C161.279 34.0211 160.645 34.0595 160.172 34.1363C159.698 34.2132 159.358 34.3476 159.154 34.5397C158.961 34.719 158.865 34.9751 158.865 35.308C158.865 35.7306 159.013 36.0764 159.307 36.3453C159.602 36.6142 160.012 36.7487 160.537 36.7487C160.959 36.7487 161.331 36.6526 161.651 36.4605C161.984 36.2556 162.246 35.9803 162.438 35.6346C162.63 35.2888 162.726 34.8919 162.726 34.4437V32.2347C162.726 31.5944 162.585 31.1334 162.304 30.8517C162.022 30.57 161.548 30.4291 160.882 30.4291C160.511 30.4291 160.108 30.4739 159.672 30.5636C159.25 30.6532 158.801 30.8069 158.328 31.0246C158.084 31.1398 157.867 31.1718 157.675 31.1206C157.495 31.0694 157.354 30.967 157.252 30.8133C157.149 30.6468 157.098 30.4675 157.098 30.2755C157.098 30.0834 157.149 29.8977 157.252 29.7184C157.354 29.5263 157.527 29.3855 157.771 29.2958C158.36 29.0525 158.923 28.8796 159.461 28.7772C160.012 28.6748 160.511 28.6235 160.959 28.6235C161.881 28.6235 162.637 28.7644 163.226 29.0461C163.828 29.3278 164.276 29.7568 164.57 30.3331C164.865 30.8965 165.012 31.6264 165.012 32.5228V37.1328C165.012 37.5298 164.916 37.8371 164.724 38.0548C164.532 38.2597 164.257 38.3622 163.898 38.3622C163.539 38.3622 163.258 38.2597 163.053 38.0548C162.861 37.8371 162.765 37.5298 162.765 37.1328V36.2108H162.918C162.829 36.659 162.649 37.0496 162.381 37.3825C162.124 37.7027 161.798 37.9524 161.401 38.1317C161.004 38.3109 160.549 38.4006 160.037 38.4006ZM168.759 38.3622C168.362 38.3622 168.054 38.2597 167.837 38.0548C167.632 37.8371 167.529 37.5298 167.529 37.1328V29.8721C167.529 29.4751 167.632 29.1742 167.837 28.9693C168.041 28.7644 168.33 28.662 168.701 28.662C169.072 28.662 169.36 28.7644 169.565 28.9693C169.77 29.1742 169.873 29.4751 169.873 29.8721V31.0822H169.681C169.86 30.3139 170.212 29.7312 170.737 29.3342C171.262 28.9373 171.96 28.7004 172.831 28.6235C173.1 28.5979 173.311 28.6684 173.465 28.8348C173.631 28.9885 173.727 29.2318 173.753 29.5647C173.778 29.8849 173.701 30.1474 173.522 30.3523C173.356 30.5444 173.1 30.6596 172.754 30.698L172.331 30.7365C171.55 30.8133 170.961 31.0566 170.564 31.4664C170.167 31.8633 169.969 32.4268 169.969 33.1567V37.1328C169.969 37.5298 169.866 37.8371 169.661 38.0548C169.456 38.2597 169.156 38.3622 168.759 38.3622ZM179.61 38.4006C178.548 38.4006 177.632 38.2021 176.864 37.8051C176.095 37.4081 175.5 36.8447 175.077 36.1148C174.667 35.3849 174.463 34.5205 174.463 33.5217C174.463 32.5484 174.661 31.6969 175.058 30.967C175.468 30.237 176.025 29.6672 176.729 29.2574C177.446 28.8348 178.259 28.6235 179.169 28.6235C179.834 28.6235 180.43 28.7324 180.955 28.9501C181.493 29.1678 181.947 29.4815 182.319 29.8913C182.703 30.3011 182.991 30.8005 183.183 31.3895C183.388 31.9658 183.49 32.6189 183.49 33.3488C183.49 33.5793 183.407 33.7586 183.241 33.8866C183.087 34.0019 182.863 34.0595 182.568 34.0595H176.403V32.6765H181.8L181.493 32.9646C181.493 32.3756 181.403 31.8826 181.224 31.4856C181.057 31.0886 180.808 30.7877 180.475 30.5828C180.155 30.3651 179.751 30.2562 179.265 30.2562C178.727 30.2562 178.266 30.3843 177.882 30.6404C177.51 30.8837 177.222 31.2359 177.017 31.6969C176.825 32.1451 176.729 32.6829 176.729 33.3104V33.4448C176.729 34.4949 176.972 35.2824 177.459 35.8075C177.958 36.3197 178.688 36.5758 179.649 36.5758C179.982 36.5758 180.353 36.5374 180.763 36.4605C181.185 36.3709 181.582 36.2236 181.954 36.0187C182.223 35.8651 182.46 35.8011 182.665 35.8267C182.869 35.8395 183.029 35.9099 183.145 36.038C183.273 36.166 183.35 36.3261 183.375 36.5182C183.401 36.6974 183.362 36.8831 183.26 37.0752C183.17 37.2673 183.01 37.4338 182.78 37.5746C182.332 37.8563 181.813 38.0676 181.224 38.2085C180.648 38.3366 180.11 38.4006 179.61 38.4006ZM195.069 38.4006C194.237 38.4006 193.539 38.2597 192.976 37.978C192.425 37.6963 192.015 37.2865 191.746 36.7487C191.477 36.198 191.343 35.5193 191.343 34.7126V30.6212H190.344C190.037 30.6212 189.8 30.5444 189.633 30.3907C189.467 30.2242 189.384 30.0001 189.384 29.7184C189.384 29.4239 189.467 29.1998 189.633 29.0461C189.8 28.8925 190.037 28.8156 190.344 28.8156H191.343V27.0677C191.343 26.6707 191.445 26.3698 191.65 26.1649C191.868 25.96 192.169 25.8575 192.553 25.8575C192.937 25.8575 193.232 25.96 193.437 26.1649C193.642 26.3698 193.744 26.6707 193.744 27.0677V28.8156H195.78C196.087 28.8156 196.324 28.8925 196.491 29.0461C196.657 29.1998 196.741 29.4239 196.741 29.7184C196.741 30.0001 196.657 30.2242 196.491 30.3907C196.324 30.5444 196.087 30.6212 195.78 30.6212H193.744V34.5781C193.744 35.1928 193.879 35.6538 194.147 35.9611C194.416 36.2685 194.852 36.4221 195.454 36.4221C195.671 36.4221 195.863 36.4029 196.03 36.3645C196.196 36.3261 196.344 36.3005 196.472 36.2877C196.625 36.2749 196.753 36.3261 196.856 36.4413C196.958 36.5438 197.009 36.7615 197.009 37.0944C197.009 37.3505 196.965 37.581 196.875 37.7859C196.798 37.978 196.651 38.1125 196.433 38.1893C196.267 38.2405 196.049 38.2853 195.78 38.3237C195.511 38.375 195.274 38.4006 195.069 38.4006ZM202.408 38.4006C201.435 38.4006 200.59 38.2021 199.873 37.8051C199.156 37.4081 198.599 36.8447 198.202 36.1148C197.805 35.3721 197.606 34.5013 197.606 33.5025C197.606 32.7469 197.715 32.0746 197.933 31.4856C198.163 30.8837 198.49 30.3715 198.913 29.9489C199.335 29.5135 199.841 29.187 200.43 28.9693C201.019 28.7388 201.679 28.6235 202.408 28.6235C203.382 28.6235 204.227 28.822 204.944 29.219C205.661 29.616 206.218 30.1794 206.615 30.9093C207.012 31.6392 207.211 32.5036 207.211 33.5025C207.211 34.258 207.095 34.9367 206.865 35.5385C206.647 36.1404 206.327 36.659 205.904 37.0944C205.482 37.517 204.976 37.8435 204.387 38.074C203.798 38.2917 203.138 38.4006 202.408 38.4006ZM202.408 36.5758C202.882 36.5758 203.298 36.4605 203.657 36.23C204.016 35.9995 204.291 35.6602 204.483 35.212C204.688 34.751 204.79 34.1811 204.79 33.5025C204.79 32.478 204.573 31.7161 204.137 31.2167C203.702 30.7044 203.126 30.4483 202.408 30.4483C201.935 30.4483 201.518 30.5636 201.16 30.7941C200.801 31.0118 200.52 31.3511 200.315 31.8121C200.123 32.2603 200.027 32.8238 200.027 33.5025C200.027 34.5141 200.244 35.2824 200.68 35.8075C201.115 36.3197 201.691 36.5758 202.408 36.5758ZM221.098 38.4006C219.689 38.4006 218.479 38.1189 217.468 37.5554C216.469 36.9792 215.7 36.1724 215.163 35.1352C214.625 34.0851 214.356 32.8494 214.356 31.428C214.356 30.3651 214.509 29.4111 214.817 28.5659C215.124 27.7079 215.566 26.978 216.142 26.3762C216.718 25.7615 217.423 25.2941 218.255 24.974C219.1 24.641 220.048 24.4745 221.098 24.4745C221.802 24.4745 222.494 24.5642 223.172 24.7435C223.851 24.9227 224.447 25.1788 224.959 25.5118C225.228 25.6783 225.407 25.8831 225.497 26.1265C225.586 26.357 225.606 26.5875 225.554 26.818C225.503 27.0356 225.394 27.2213 225.228 27.375C225.074 27.5287 224.876 27.6183 224.632 27.6439C224.402 27.6567 224.146 27.5735 223.864 27.3942C223.467 27.1381 223.038 26.9524 222.577 26.8372C222.116 26.7219 221.649 26.6643 221.175 26.6643C220.266 26.6643 219.497 26.85 218.87 27.2213C218.242 27.5927 217.769 28.1305 217.448 28.8348C217.128 29.5391 216.968 30.4035 216.968 31.428C216.968 32.4396 217.128 33.304 217.448 34.0211C217.769 34.7382 218.242 35.2824 218.87 35.6538C219.497 36.0251 220.266 36.2108 221.175 36.2108C221.661 36.2108 222.142 36.1532 222.615 36.038C223.089 35.9099 223.537 35.7178 223.96 35.4617C224.242 35.2952 224.491 35.2248 224.709 35.2504C224.94 35.2632 225.132 35.3401 225.285 35.4809C225.439 35.6218 225.541 35.8011 225.593 36.0187C225.644 36.2236 225.631 36.4413 225.554 36.6718C225.477 36.8895 225.324 37.0816 225.093 37.2481C224.581 37.6194 223.966 37.9076 223.249 38.1125C222.545 38.3045 221.828 38.4006 221.098 38.4006ZM228.894 38.3622C228.51 38.3622 228.215 38.2597 228.01 38.0548C227.805 37.8371 227.703 37.5298 227.703 37.1328V25.7231C227.703 25.3261 227.805 25.0252 228.01 24.8203C228.215 24.6154 228.51 24.513 228.894 24.513C229.278 24.513 229.572 24.6154 229.777 24.8203C229.995 25.0252 230.104 25.3261 230.104 25.7231V30.698H229.835C230.117 30.0193 230.552 29.5071 231.141 29.1614C231.743 28.8028 232.422 28.6235 233.177 28.6235C233.933 28.6235 234.554 28.7644 235.04 29.0461C235.527 29.3278 235.892 29.7568 236.135 30.3331C236.379 30.8965 236.5 31.6136 236.5 32.4844V37.1328C236.5 37.5298 236.398 37.8371 236.193 38.0548C235.988 38.2597 235.693 38.3622 235.309 38.3622C234.925 38.3622 234.624 38.2597 234.407 38.0548C234.202 37.8371 234.099 37.5298 234.099 37.1328V32.5997C234.099 31.8697 233.958 31.3383 233.677 31.0054C233.408 30.6724 232.985 30.506 232.409 30.506C231.705 30.506 231.141 30.7301 230.719 31.1782C230.309 31.6136 230.104 32.1963 230.104 32.9262V37.1328C230.104 37.9524 229.7 38.3622 228.894 38.3622ZM242.111 38.4006C241.433 38.4006 240.825 38.2725 240.287 38.0164C239.762 37.7475 239.345 37.3889 239.038 36.9407C238.744 36.4926 238.596 35.9867 238.596 35.4233C238.596 34.7318 238.776 34.1876 239.134 33.7906C239.493 33.3808 240.075 33.0863 240.882 32.907C241.689 32.7277 242.771 32.6381 244.128 32.6381H245.089V34.0211H244.148C243.354 34.0211 242.72 34.0595 242.246 34.1363C241.772 34.2132 241.433 34.3476 241.228 34.5397C241.036 34.719 240.94 34.9751 240.94 35.308C240.94 35.7306 241.087 36.0764 241.382 36.3453C241.676 36.6142 242.086 36.7487 242.611 36.7487C243.034 36.7487 243.405 36.6526 243.725 36.4605C244.058 36.2556 244.32 35.9803 244.513 35.6346C244.705 35.2888 244.801 34.8919 244.801 34.4437V32.2347C244.801 31.5944 244.66 31.1334 244.378 30.8517C244.096 30.57 243.623 30.4291 242.957 30.4291C242.585 30.4291 242.182 30.4739 241.747 30.5636C241.324 30.6532 240.876 30.8069 240.402 31.0246C240.159 31.1398 239.941 31.1718 239.749 31.1206C239.57 31.0694 239.429 30.967 239.326 30.8133C239.224 30.6468 239.173 30.4675 239.173 30.2755C239.173 30.0834 239.224 29.8977 239.326 29.7184C239.429 29.5263 239.602 29.3855 239.845 29.2958C240.434 29.0525 240.997 28.8796 241.535 28.7772C242.086 28.6748 242.585 28.6235 243.034 28.6235C243.956 28.6235 244.711 28.7644 245.3 29.0461C245.902 29.3278 246.35 29.7568 246.645 30.3331C246.939 30.8965 247.086 31.6264 247.086 32.5228V37.1328C247.086 37.5298 246.99 37.8371 246.798 38.0548C246.606 38.2597 246.331 38.3622 245.972 38.3622C245.614 38.3622 245.332 38.2597 245.127 38.0548C244.935 37.8371 244.839 37.5298 244.839 37.1328V36.2108H244.993C244.903 36.659 244.724 37.0496 244.455 37.3825C244.199 37.7027 243.872 37.9524 243.475 38.1317C243.078 38.3109 242.624 38.4006 242.111 38.4006ZM250.794 38.3622C250.41 38.3622 250.116 38.2597 249.911 38.0548C249.706 37.8371 249.604 37.5298 249.604 37.1328V29.8721C249.604 29.4751 249.706 29.1742 249.911 28.9693C250.116 28.7644 250.404 28.662 250.775 28.662C251.147 28.662 251.435 28.7644 251.64 28.9693C251.845 29.1742 251.947 29.4751 251.947 29.8721V31.1782L251.736 30.698C252.017 30.0193 252.453 29.5071 253.042 29.1614C253.644 28.8028 254.322 28.6235 255.078 28.6235C255.833 28.6235 256.455 28.7644 256.941 29.0461C257.428 29.3278 257.793 29.7568 258.036 30.3331C258.279 30.8965 258.401 31.6136 258.401 32.4844V37.1328C258.401 37.5298 258.299 37.8371 258.094 38.0548C257.889 38.2597 257.594 38.3622 257.21 38.3622C256.826 38.3622 256.525 38.2597 256.307 38.0548C256.102 37.8371 256 37.5298 256 37.1328V32.5997C256 31.8697 255.859 31.3383 255.577 31.0054C255.308 30.6724 254.886 30.506 254.31 30.506C253.605 30.506 253.042 30.7301 252.619 31.1782C252.209 31.6136 252.005 32.1963 252.005 32.9262V37.1328C252.005 37.9524 251.601 38.3622 250.794 38.3622ZM265.299 41.8581C264.608 41.8581 263.935 41.7941 263.282 41.666C262.642 41.5379 262.059 41.3395 261.534 41.0705C261.291 40.9425 261.125 40.7888 261.035 40.6095C260.958 40.4303 260.933 40.2446 260.958 40.0525C260.997 39.8732 261.073 39.7131 261.189 39.5723C261.317 39.4314 261.47 39.3354 261.65 39.2842C261.829 39.2329 262.015 39.2586 262.207 39.361C262.77 39.6427 263.302 39.822 263.801 39.8988C264.313 39.9885 264.749 40.0333 265.107 40.0333C265.965 40.0333 266.605 39.822 267.028 39.3994C267.463 38.9896 267.681 38.375 267.681 37.5554V35.8267H267.854C267.662 36.4797 267.258 37.0048 266.644 37.4017C266.042 37.7859 265.357 37.978 264.589 37.978C263.743 37.978 263.007 37.7859 262.38 37.4017C261.752 37.0048 261.265 36.4541 260.92 35.7498C260.574 35.0455 260.401 34.226 260.401 33.2912C260.401 32.5869 260.497 31.953 260.689 31.3895C260.894 30.8133 261.176 30.3203 261.534 29.9105C261.906 29.5007 262.348 29.187 262.86 28.9693C263.385 28.7388 263.961 28.6235 264.589 28.6235C265.382 28.6235 266.074 28.822 266.663 29.219C267.265 29.6032 267.655 30.1154 267.835 30.7557L267.643 31.2359V29.8721C267.643 29.4751 267.745 29.1742 267.95 28.9693C268.168 28.7644 268.462 28.662 268.834 28.662C269.218 28.662 269.512 28.7644 269.717 28.9693C269.922 29.1742 270.024 29.4751 270.024 29.8721V37.2673C270.024 38.7911 269.621 39.9372 268.814 40.7056C268.008 41.4739 266.836 41.8581 265.299 41.8581ZM265.242 36.1532C265.741 36.1532 266.17 36.038 266.529 35.8075C266.887 35.577 267.162 35.2504 267.355 34.8278C267.559 34.3924 267.662 33.8802 267.662 33.2912C267.662 32.4076 267.444 31.7161 267.009 31.2167C266.573 30.7044 265.984 30.4483 265.242 30.4483C264.742 30.4483 264.313 30.5636 263.955 30.7941C263.596 31.0246 263.314 31.3511 263.109 31.7737C262.917 32.1963 262.821 32.7021 262.821 33.2912C262.821 34.1747 263.039 34.8726 263.474 35.3849C263.91 35.8971 264.499 36.1532 265.242 36.1532ZM277.222 38.4006C276.159 38.4006 275.243 38.2021 274.475 37.8051C273.706 37.4081 273.111 36.8447 272.688 36.1148C272.279 35.3849 272.074 34.5205 272.074 33.5217C272.074 32.5484 272.272 31.6969 272.669 30.967C273.079 30.237 273.636 29.6672 274.34 29.2574C275.057 28.8348 275.871 28.6235 276.78 28.6235C277.446 28.6235 278.041 28.7324 278.566 28.9501C279.104 29.1678 279.559 29.4815 279.93 29.8913C280.314 30.3011 280.602 30.8005 280.794 31.3895C280.999 31.9658 281.102 32.6189 281.102 33.3488C281.102 33.5793 281.018 33.7586 280.852 33.8866C280.698 34.0019 280.474 34.0595 280.18 34.0595H274.014V32.6765H279.411L279.104 32.9646C279.104 32.3756 279.014 31.8826 278.835 31.4856C278.669 31.0886 278.419 30.7877 278.086 30.5828C277.766 30.3651 277.362 30.2562 276.876 30.2562C276.338 30.2562 275.877 30.3843 275.493 30.6404C275.121 30.8837 274.833 31.2359 274.628 31.6969C274.436 32.1451 274.34 32.6829 274.34 33.3104V33.4448C274.34 34.4949 274.584 35.2824 275.07 35.8075C275.57 36.3197 276.3 36.5758 277.26 36.5758C277.593 36.5758 277.964 36.5374 278.374 36.4605C278.797 36.3709 279.194 36.2236 279.565 36.0187C279.834 35.8651 280.071 35.8011 280.276 35.8267C280.481 35.8395 280.641 35.9099 280.756 36.038C280.884 36.166 280.961 36.3261 280.986 36.5182C281.012 36.6974 280.974 36.8831 280.871 37.0752C280.781 37.2673 280.621 37.4338 280.391 37.5746C279.943 37.8563 279.424 38.0676 278.835 38.2085C278.259 38.3366 277.721 38.4006 277.222 38.4006ZM294.909 38.4006C293.5 38.4006 292.29 38.1189 291.278 37.5554C290.28 36.9792 289.511 36.1724 288.973 35.1352C288.436 34.0851 288.167 32.8494 288.167 31.428C288.167 30.3651 288.32 29.4111 288.628 28.5659C288.935 27.7079 289.377 26.978 289.953 26.3762C290.529 25.7615 291.234 25.2941 292.066 24.974C292.911 24.641 293.859 24.4745 294.909 24.4745C295.613 24.4745 296.305 24.5642 296.983 24.7435C297.662 24.9227 298.257 25.1788 298.77 25.5118C299.039 25.6783 299.218 25.8831 299.307 26.1265C299.397 26.357 299.416 26.5875 299.365 26.818C299.314 27.0356 299.205 27.2213 299.039 27.375C298.885 27.5287 298.686 27.6183 298.443 27.6439C298.213 27.6567 297.956 27.5735 297.675 27.3942C297.278 27.1381 296.849 26.9524 296.388 26.8372C295.927 26.7219 295.459 26.6643 294.986 26.6643C294.076 26.6643 293.308 26.85 292.681 27.2213C292.053 27.5927 291.579 28.1305 291.259 28.8348C290.939 29.5391 290.779 30.4035 290.779 31.428C290.779 32.4396 290.939 33.304 291.259 34.0211C291.579 34.7382 292.053 35.2824 292.681 35.6538C293.308 36.0251 294.076 36.2108 294.986 36.2108C295.472 36.2108 295.952 36.1532 296.426 36.038C296.9 35.9099 297.348 35.7178 297.771 35.4617C298.052 35.2952 298.302 35.2248 298.52 35.2504C298.75 35.2632 298.942 35.3401 299.096 35.4809C299.25 35.6218 299.352 35.8011 299.403 36.0187C299.455 36.2236 299.442 36.4413 299.365 36.6718C299.288 36.8895 299.135 37.0816 298.904 37.2481C298.392 37.6194 297.777 37.9076 297.06 38.1125C296.356 38.3045 295.639 38.4006 294.909 38.4006ZM304.268 38.4006C303.59 38.4006 302.982 38.2725 302.444 38.0164C301.919 37.7475 301.502 37.3889 301.195 36.9407C300.901 36.4926 300.753 35.9867 300.753 35.4233C300.753 34.7318 300.933 34.1876 301.291 33.7906C301.65 33.3808 302.232 33.0863 303.039 32.907C303.846 32.7277 304.928 32.6381 306.285 32.6381H307.246V34.0211H306.305C305.511 34.0211 304.877 34.0595 304.403 34.1363C303.929 34.2132 303.59 34.3476 303.385 34.5397C303.193 34.719 303.097 34.9751 303.097 35.308C303.097 35.7306 303.244 36.0764 303.539 36.3453C303.833 36.6142 304.243 36.7487 304.768 36.7487C305.19 36.7487 305.562 36.6526 305.882 36.4605C306.215 36.2556 306.477 35.9803 306.67 35.6346C306.862 35.2888 306.958 34.8919 306.958 34.4437V32.2347C306.958 31.5944 306.817 31.1334 306.535 30.8517C306.253 30.57 305.78 30.4291 305.114 30.4291C304.742 30.4291 304.339 30.4739 303.904 30.5636C303.481 30.6532 303.033 30.8069 302.559 31.0246C302.316 31.1398 302.098 31.1718 301.906 31.1206C301.727 31.0694 301.586 30.967 301.483 30.8133C301.381 30.6468 301.33 30.4675 301.33 30.2755C301.33 30.0834 301.381 29.8977 301.483 29.7184C301.586 29.5263 301.759 29.3855 302.002 29.2958C302.591 29.0525 303.154 28.8796 303.692 28.7772C304.243 28.6748 304.742 28.6235 305.19 28.6235C306.112 28.6235 306.868 28.7644 307.457 29.0461C308.059 29.3278 308.507 29.7568 308.802 30.3331C309.096 30.8965 309.243 31.6264 309.243 32.5228V37.1328C309.243 37.5298 309.147 37.8371 308.955 38.0548C308.763 38.2597 308.488 38.3622 308.129 38.3622C307.771 38.3622 307.489 38.2597 307.284 38.0548C307.092 37.8371 306.996 37.5298 306.996 37.1328V36.2108H307.15C307.06 36.659 306.881 37.0496 306.612 37.3825C306.356 37.7027 306.029 37.9524 305.632 38.1317C305.235 38.3109 304.781 38.4006 304.268 38.4006ZM312.99 38.3622C312.593 38.3622 312.286 38.2597 312.068 38.0548C311.863 37.8371 311.761 37.5298 311.761 37.1328V29.8721C311.761 29.4751 311.863 29.1742 312.068 28.9693C312.273 28.7644 312.561 28.662 312.932 28.662C313.304 28.662 313.592 28.7644 313.797 28.9693C314.002 29.1742 314.104 29.4751 314.104 29.8721V31.0822H313.912C314.091 30.3139 314.443 29.7312 314.968 29.3342C315.493 28.9373 316.191 28.7004 317.062 28.6235C317.331 28.5979 317.542 28.6684 317.696 28.8348C317.862 28.9885 317.958 29.2318 317.984 29.5647C318.01 29.8849 317.933 30.1474 317.754 30.3523C317.587 30.5444 317.331 30.6596 316.985 30.698L316.563 30.7365C315.781 30.8133 315.192 31.0566 314.795 31.4664C314.398 31.8633 314.2 32.4268 314.2 33.1567V37.1328C314.2 37.5298 314.098 37.8371 313.893 38.0548C313.688 38.2597 313.387 38.3622 312.99 38.3622ZM323.842 38.4006C322.779 38.4006 321.863 38.2021 321.095 37.8051C320.327 37.4081 319.731 36.8447 319.309 36.1148C318.899 35.3849 318.694 34.5205 318.694 33.5217C318.694 32.5484 318.892 31.6969 319.289 30.967C319.699 30.237 320.256 29.6672 320.96 29.2574C321.678 28.8348 322.491 28.6235 323.4 28.6235C324.066 28.6235 324.661 28.7324 325.186 28.9501C325.724 29.1678 326.179 29.4815 326.55 29.8913C326.934 30.3011 327.222 30.8005 327.414 31.3895C327.619 31.9658 327.722 32.6189 327.722 33.3488C327.722 33.5793 327.639 33.7586 327.472 33.8866C327.318 34.0019 327.094 34.0595 326.8 34.0595H320.634V32.6765H326.031L325.724 32.9646C325.724 32.3756 325.634 31.8826 325.455 31.4856C325.289 31.0886 325.039 30.7877 324.706 30.5828C324.386 30.3651 323.983 30.2562 323.496 30.2562C322.958 30.2562 322.497 30.3843 322.113 30.6404C321.742 30.8837 321.453 31.2359 321.249 31.6969C321.057 32.1451 320.96 32.6829 320.96 33.3104V33.4448C320.96 34.4949 321.204 35.2824 321.69 35.8075C322.19 36.3197 322.92 36.5758 323.88 36.5758C324.213 36.5758 324.584 36.5374 324.994 36.4605C325.417 36.3709 325.814 36.2236 326.185 36.0187C326.454 35.8651 326.691 35.8011 326.896 35.8267C327.101 35.8395 327.261 35.9099 327.376 36.038C327.504 36.166 327.581 36.3261 327.607 36.5182C327.632 36.6974 327.594 36.8831 327.491 37.0752C327.402 37.2673 327.242 37.4338 327.011 37.5746C326.563 37.8563 326.044 38.0676 325.455 38.2085C324.879 38.3366 324.341 38.4006 323.842 38.4006ZM334.333 38.4006C333.27 38.4006 332.354 38.2021 331.586 37.8051C330.817 37.4081 330.222 36.8447 329.799 36.1148C329.39 35.3849 329.185 34.5205 329.185 33.5217C329.185 32.5484 329.383 31.6969 329.78 30.967C330.19 30.237 330.747 29.6672 331.451 29.2574C332.168 28.8348 332.982 28.6235 333.891 28.6235C334.557 28.6235 335.152 28.7324 335.677 28.9501C336.215 29.1678 336.67 29.4815 337.041 29.8913C337.425 30.3011 337.713 30.8005 337.905 31.3895C338.11 31.9658 338.213 32.6189 338.213 33.3488C338.213 33.5793 338.129 33.7586 337.963 33.8866C337.809 34.0019 337.585 34.0595 337.291 34.0595H331.125V32.6765H336.522L336.215 32.9646C336.215 32.3756 336.125 31.8826 335.946 31.4856C335.78 31.0886 335.53 30.7877 335.197 30.5828C334.877 30.3651 334.473 30.2562 333.987 30.2562C333.449 30.2562 332.988 30.3843 332.604 30.6404C332.232 30.8837 331.944 31.2359 331.739 31.6969C331.547 32.1451 331.451 32.6829 331.451 33.3104V33.4448C331.451 34.4949 331.695 35.2824 332.181 35.8075C332.681 36.3197 333.411 36.5758 334.371 36.5758C334.704 36.5758 335.075 36.5374 335.485 36.4605C335.908 36.3709 336.305 36.2236 336.676 36.0187C336.945 35.8651 337.182 35.8011 337.387 35.8267C337.592 35.8395 337.752 35.9099 337.867 36.038C337.995 36.166 338.072 36.3261 338.097 36.5182C338.123 36.6974 338.085 36.8831 337.982 37.0752C337.892 37.2673 337.732 37.4338 337.502 37.5746C337.054 37.8563 336.535 38.0676 335.946 38.2085C335.37 38.3366 334.832 38.4006 334.333 38.4006ZM341.423 38.3622C341.026 38.3622 340.719 38.2597 340.501 38.0548C340.297 37.8371 340.194 37.5298 340.194 37.1328V29.8721C340.194 29.4751 340.297 29.1742 340.501 28.9693C340.706 28.7644 340.994 28.662 341.366 28.662C341.737 28.662 342.025 28.7644 342.23 28.9693C342.435 29.1742 342.538 29.4751 342.538 29.8721V31.0822H342.345C342.525 30.3139 342.877 29.7312 343.402 29.3342C343.927 28.9373 344.625 28.7004 345.496 28.6235C345.765 28.5979 345.976 28.6684 346.129 28.8348C346.296 28.9885 346.392 29.2318 346.418 29.5647C346.443 29.8849 346.366 30.1474 346.187 30.3523C346.021 30.5444 345.765 30.6596 345.419 30.698L344.996 30.7365C344.215 30.8133 343.626 31.0566 343.229 31.4664C342.832 31.8633 342.634 32.4268 342.634 33.1567V37.1328C342.634 37.5298 342.531 37.8371 342.326 38.0548C342.121 38.2597 341.82 38.3622 341.423 38.3622Z" fill="#160DE0"/>
<line x1="22.4102" y1="48.4211" x2="437.793" y2="48.4211" stroke="#CBCBCB" stroke-width="0.800347"/>
<path d="M32.5649 165.145V174.07H31.3996V165.145H32.5649ZM34.1956 170.536C34.1956 169.819 34.3407 169.191 34.631 168.654C34.9213 168.107 35.3182 167.685 35.8219 167.386C36.3341 167.087 36.9061 166.938 37.5379 166.938C38.0842 166.938 38.5922 167.066 39.0617 167.322C39.5313 167.569 39.8898 167.898 40.1374 168.308V164.594H41.3155V174.07H40.1374V172.751C39.9069 173.17 39.5654 173.515 39.1129 173.789C38.6605 174.053 38.1312 174.186 37.5251 174.186C36.9019 174.186 36.3341 174.032 35.8219 173.725C35.3182 173.417 34.9213 172.986 34.631 172.431C34.3407 171.876 34.1956 171.245 34.1956 170.536ZM40.1374 170.549C40.1374 170.019 40.0307 169.558 39.8173 169.166C39.6038 168.773 39.3136 168.474 38.9465 168.269C38.5879 168.056 38.1909 167.949 37.7556 167.949C37.3202 167.949 36.9232 168.052 36.5646 168.257C36.2061 168.461 35.9201 168.76 35.7067 169.153C35.4932 169.546 35.3865 170.007 35.3865 170.536C35.3865 171.074 35.4932 171.543 35.7067 171.945C35.9201 172.337 36.2061 172.64 36.5646 172.854C36.9232 173.059 37.3202 173.161 37.7556 173.161C38.1909 173.161 38.5879 173.059 38.9465 172.854C39.3136 172.64 39.6038 172.337 39.8173 171.945C40.0307 171.543 40.1374 171.078 40.1374 170.549ZM49.7676 170.293C49.7676 170.515 49.7548 170.749 49.7292 170.997H44.1203C44.163 171.688 44.3978 172.231 44.8246 172.623C45.26 173.007 45.785 173.2 46.3997 173.2C46.9034 173.2 47.3217 173.084 47.6547 172.854C47.9961 172.615 48.2352 172.299 48.3718 171.906H49.6267C49.4389 172.581 49.0633 173.131 48.4998 173.558C47.9364 173.976 47.2363 174.186 46.3997 174.186C45.7338 174.186 45.1362 174.036 44.6069 173.737C44.0862 173.439 43.6764 173.016 43.3776 172.47C43.0788 171.915 42.9294 171.274 42.9294 170.549C42.9294 169.823 43.0745 169.187 43.3648 168.641C43.6551 168.094 44.0606 167.676 44.5813 167.386C45.1106 167.087 45.7167 166.938 46.3997 166.938C47.0656 166.938 47.6547 167.083 48.1669 167.373C48.6791 167.663 49.0718 168.065 49.345 168.577C49.6267 169.08 49.7676 169.652 49.7676 170.293ZM48.5638 170.049C48.5638 169.605 48.4657 169.226 48.2693 168.91C48.073 168.585 47.8041 168.342 47.4626 168.18C47.1296 168.009 46.7583 167.924 46.3485 167.924C45.7594 167.924 45.2557 168.111 44.8374 168.487C44.4277 168.863 44.1929 169.383 44.1331 170.049H48.5638ZM50.9504 170.536C50.9504 169.819 51.0955 169.191 51.3858 168.654C51.676 168.107 52.073 167.685 52.5767 167.386C53.0889 167.087 53.6566 166.938 54.2798 166.938C54.8945 166.938 55.4281 167.07 55.8805 167.335C56.333 167.599 56.6702 167.932 56.8922 168.333V167.053H58.0703V174.07H56.8922V172.764C56.6617 173.174 56.3159 173.515 55.8549 173.789C55.4024 174.053 54.8732 174.186 54.267 174.186C53.6438 174.186 53.0804 174.032 52.5767 173.725C52.073 173.417 51.676 172.986 51.3858 172.431C51.0955 171.876 50.9504 171.245 50.9504 170.536ZM56.8922 170.549C56.8922 170.019 56.7854 169.558 56.572 169.166C56.3586 168.773 56.0683 168.474 55.7012 168.269C55.3427 168.056 54.9457 167.949 54.5103 167.949C54.0749 167.949 53.678 168.052 53.3194 168.257C52.9609 168.461 52.6749 168.76 52.4614 169.153C52.248 169.546 52.1413 170.007 52.1413 170.536C52.1413 171.074 52.248 171.543 52.4614 171.945C52.6749 172.337 52.9609 172.64 53.3194 172.854C53.678 173.059 54.0749 173.161 54.5103 173.161C54.9457 173.161 55.3427 173.059 55.7012 172.854C56.0683 172.64 56.3586 172.337 56.572 171.945C56.7854 171.543 56.8922 171.078 56.8922 170.549ZM62.6038 174.186C62.066 174.186 61.5837 174.096 61.1568 173.917C60.73 173.729 60.3927 173.473 60.1452 173.148C59.8976 172.815 59.761 172.435 59.7354 172.009H60.9391C60.9733 172.359 61.1355 172.645 61.4257 172.867C61.7245 173.089 62.113 173.2 62.591 173.2C63.035 173.2 63.385 173.101 63.6411 172.905C63.8972 172.709 64.0253 172.461 64.0253 172.162C64.0253 171.855 63.8887 171.629 63.6155 171.484C63.3423 171.33 62.9197 171.181 62.3477 171.035C61.827 170.899 61.4001 170.762 61.0672 170.626C60.7428 170.48 60.461 170.271 60.222 169.998C59.9915 169.716 59.8763 169.349 59.8763 168.897C59.8763 168.538 59.983 168.21 60.1964 167.911C60.4098 167.612 60.7129 167.377 61.1056 167.207C61.4983 167.027 61.9465 166.938 62.4502 166.938C63.227 166.938 63.8545 167.134 64.3326 167.527C64.8107 167.919 65.0668 168.457 65.1009 169.14H63.9356C63.91 168.773 63.7606 168.479 63.4874 168.257C63.2228 168.035 62.8642 167.924 62.4118 167.924C61.9934 167.924 61.6605 168.013 61.4129 168.193C61.1653 168.372 61.0416 168.607 61.0416 168.897C61.0416 169.127 61.1141 169.319 61.2593 169.473C61.4129 169.618 61.6007 169.738 61.8227 169.832C62.0532 169.917 62.3691 170.015 62.7703 170.126C63.274 170.263 63.6838 170.399 63.9996 170.536C64.3155 170.664 64.5844 170.86 64.8064 171.125C65.0369 171.39 65.1564 171.735 65.165 172.162C65.165 172.546 65.0582 172.892 64.8448 173.2C64.6314 173.507 64.3283 173.75 63.9356 173.929C63.5515 174.1 63.1075 174.186 62.6038 174.186Z" fill="#555555"/>
<rect width="415.38" height="36.0069" transform="translate(22.4116 68.0298)" fill="#E9F1FE"/>
<path d="M35.063 91.1773C34.6404 91.1773 34.2179 91.1437 33.7953 91.0764C33.3727 91.0188 32.9741 90.9276 32.5996 90.8027C32.225 90.6682 31.8888 90.505 31.5911 90.3129C31.4182 90.1976 31.2982 90.0584 31.231 89.8951C31.1637 89.7318 31.1397 89.5734 31.1589 89.4197C31.1877 89.2564 31.2502 89.1172 31.3462 89.0019C31.4519 88.8771 31.5815 88.8002 31.7352 88.7714C31.8888 88.7426 32.0569 88.7858 32.2394 88.9011C32.662 89.1508 33.1086 89.3333 33.5792 89.4485C34.0498 89.5638 34.5444 89.6214 35.063 89.6214C35.8218 89.6214 36.374 89.4965 36.7197 89.2468C37.0655 88.9875 37.2384 88.6562 37.2384 88.2528C37.2384 87.9167 37.1135 87.6525 36.8638 87.4605C36.6237 87.2684 36.2059 87.1099 35.6105 86.985L34.0258 86.6537C33.1134 86.4616 32.4315 86.1399 31.9801 85.6885C31.5383 85.2275 31.3174 84.6224 31.3174 83.8733C31.3174 83.4027 31.4134 82.9753 31.6055 82.5911C31.7976 82.207 32.0665 81.8756 32.4123 81.5971C32.7676 81.3186 33.1854 81.1073 33.6656 80.9632C34.1554 80.8096 34.6933 80.7327 35.2791 80.7327C35.8554 80.7327 36.4028 80.8048 36.9214 80.9488C37.4401 81.0929 37.9059 81.3042 38.3188 81.5827C38.4725 81.6883 38.5733 81.818 38.6214 81.9717C38.679 82.1253 38.6934 82.279 38.6646 82.4327C38.6358 82.5767 38.5685 82.7016 38.4629 82.8072C38.3573 82.9129 38.2228 82.9753 38.0595 82.9945C37.9059 83.0137 37.7282 82.9657 37.5265 82.8505C37.1711 82.6488 36.811 82.5047 36.446 82.4183C36.0811 82.3318 35.6873 82.2886 35.2647 82.2886C34.8229 82.2886 34.4436 82.351 34.1266 82.4759C33.8097 82.6007 33.5648 82.7784 33.3919 83.0089C33.2286 83.2298 33.147 83.4939 33.147 83.8013C33.147 84.147 33.2622 84.4255 33.4927 84.6368C33.7232 84.8385 34.117 84.997 34.6741 85.1122L36.2443 85.4436C37.1952 85.6453 37.9011 85.9622 38.3621 86.3944C38.8327 86.8266 39.068 87.4028 39.068 88.1231C39.068 88.5841 38.9719 89.0019 38.7798 89.3765C38.5974 89.751 38.3284 90.0728 37.9731 90.3417C37.6273 90.6106 37.2096 90.8171 36.7197 90.9612C36.2299 91.1052 35.6777 91.1773 35.063 91.1773ZM43.7144 91.1773C43.0902 91.1773 42.5667 91.0716 42.1442 90.8603C41.7312 90.649 41.4238 90.3417 41.2222 89.9383C41.0205 89.5253 40.9196 89.0163 40.9196 88.4113V85.3427H40.1705C39.94 85.3427 39.7623 85.2851 39.6375 85.1699C39.5126 85.045 39.4502 84.8769 39.4502 84.6656C39.4502 84.4447 39.5126 84.2767 39.6375 84.1614C39.7623 84.0462 39.94 83.9885 40.1705 83.9885H40.9196V82.6776C40.9196 82.3798 40.9965 82.1542 41.1501 82.0005C41.3134 81.8468 41.5391 81.77 41.8272 81.77C42.1153 81.77 42.3362 81.8468 42.4899 82.0005C42.6436 82.1542 42.7204 82.3798 42.7204 82.6776V83.9885H44.2475C44.478 83.9885 44.6556 84.0462 44.7805 84.1614C44.9054 84.2767 44.9678 84.4447 44.9678 84.6656C44.9678 84.8769 44.9054 85.045 44.7805 85.1699C44.6556 85.2851 44.478 85.3427 44.2475 85.3427H42.7204V88.3104C42.7204 88.7714 42.8213 89.1172 43.0229 89.3477C43.2246 89.5782 43.5512 89.6934 44.0026 89.6934C44.1658 89.6934 44.3099 89.679 44.4348 89.6502C44.5596 89.6214 44.6701 89.6022 44.7661 89.5926C44.8813 89.583 44.9774 89.6214 45.0542 89.7078C45.1311 89.7847 45.1695 89.9479 45.1695 90.1976C45.1695 90.3897 45.1359 90.5626 45.0686 90.7163C45.011 90.8603 44.9006 90.9612 44.7373 91.0188C44.6124 91.0572 44.4492 91.0908 44.2475 91.1196C44.0458 91.1581 43.8681 91.1773 43.7144 91.1773ZM49.498 91.1773C48.7009 91.1773 48.0142 91.0284 47.4379 90.7307C46.8617 90.4329 46.4151 90.0104 46.0981 89.4629C45.7908 88.9155 45.6371 88.2672 45.6371 87.5181C45.6371 86.7882 45.786 86.1495 46.0837 85.602C46.3911 85.0546 46.8088 84.6272 47.3371 84.3199C47.8749 84.003 48.4848 83.8445 49.1667 83.8445C49.6661 83.8445 50.1127 83.9261 50.5064 84.0894C50.9098 84.2527 51.2508 84.488 51.5293 84.7953C51.8174 85.1026 52.0335 85.4772 52.1776 85.919C52.3312 86.3512 52.4081 86.841 52.4081 87.3884C52.4081 87.5613 52.3456 87.6958 52.2208 87.7918C52.1055 87.8782 51.9375 87.9215 51.7166 87.9215H47.0922V86.8842H51.1403L50.9098 87.1003C50.9098 86.6585 50.8426 86.2887 50.7081 85.991C50.5833 85.6933 50.396 85.4676 50.1463 85.3139C49.9062 85.1507 49.6036 85.069 49.2387 85.069C48.8353 85.069 48.4896 85.1651 48.2014 85.3571C47.9229 85.5396 47.7068 85.8037 47.5532 86.1495C47.4091 86.4856 47.3371 86.889 47.3371 87.3596V87.4605C47.3371 88.248 47.5195 88.8387 47.8845 89.2324C48.2591 89.6166 48.8065 89.8087 49.5268 89.8087C49.7765 89.8087 50.055 89.7799 50.3624 89.7222C50.6793 89.655 50.977 89.5446 51.2556 89.3909C51.4573 89.2756 51.6349 89.2276 51.7886 89.2468C51.9423 89.2564 52.0623 89.3093 52.1488 89.4053C52.2448 89.5013 52.3024 89.6214 52.3216 89.7655C52.3408 89.8999 52.312 90.0392 52.2352 90.1832C52.168 90.3273 52.0479 90.4522 51.875 90.5578C51.5389 90.7691 51.1499 90.9276 50.7081 91.0332C50.2759 91.1292 49.8726 91.1773 49.498 91.1773ZM54.8074 93.7416C54.5193 93.7416 54.2984 93.6647 54.1447 93.5111C53.991 93.3574 53.9142 93.1317 53.9142 92.834V84.7809C53.9142 84.4832 53.991 84.2575 54.1447 84.1038C54.2984 83.9501 54.5145 83.8733 54.793 83.8733C55.0811 83.8733 55.302 83.9501 55.4557 84.1038C55.6093 84.2575 55.6862 84.4832 55.6862 84.7809V85.9046L55.5277 85.4724C55.6718 84.9826 55.9647 84.5888 56.4065 84.2911C56.8579 83.9933 57.3813 83.8445 57.9768 83.8445C58.5914 83.8445 59.1293 83.9933 59.5903 84.2911C60.0609 84.5888 60.4258 85.0114 60.6851 85.5588C60.9445 86.0967 61.0741 86.7449 61.0741 87.5037C61.0741 88.2528 60.9445 88.9059 60.6851 89.4629C60.4258 90.0104 60.0657 90.4329 59.6047 90.7307C59.1437 91.0284 58.601 91.1773 57.9768 91.1773C57.3909 91.1773 56.8771 91.0332 56.4353 90.7451C55.9935 90.4473 55.6958 90.0632 55.5421 89.5926H55.715V92.834C55.715 93.1317 55.6334 93.3574 55.4701 93.5111C55.3164 93.6647 55.0955 93.7416 54.8074 93.7416ZM57.4725 89.8087C57.8279 89.8087 58.14 89.7222 58.409 89.5494C58.6779 89.3765 58.8844 89.122 59.0284 88.7858C59.1821 88.4401 59.2589 88.0127 59.2589 87.5037C59.2589 86.7353 59.0957 86.1639 58.7691 85.7893C58.4426 85.4052 58.0104 85.2131 57.4725 85.2131C57.1172 85.2131 56.8051 85.2995 56.5361 85.4724C56.2672 85.6357 56.0559 85.8902 55.9023 86.2359C55.7582 86.5721 55.6862 86.9947 55.6862 87.5037C55.6862 88.2624 55.8494 88.8387 56.176 89.2324C56.5025 89.6166 56.9347 89.8087 57.4725 89.8087ZM67.9344 91.0332C67.6847 91.0332 67.4878 90.966 67.3438 90.8315C67.2093 90.6875 67.1421 90.4954 67.1421 90.2553C67.1421 90.0056 67.2093 89.8183 67.3438 89.6934C67.4878 89.5686 67.6847 89.5061 67.9344 89.5061H69.5479V82.4327H70.4411L68.3234 83.7148C68.1409 83.8205 67.9681 83.8637 67.8048 83.8445C67.6511 83.8157 67.5167 83.7484 67.4014 83.6428C67.2958 83.5275 67.2237 83.3931 67.1853 83.2394C67.1469 83.0858 67.1565 82.9321 67.2141 82.7784C67.2814 82.6152 67.4062 82.4807 67.5887 82.375L69.5767 81.1793C69.7688 81.0641 69.9609 80.968 70.153 80.8912C70.3451 80.8048 70.5228 80.7615 70.686 80.7615C70.8877 80.7615 71.0558 80.8192 71.1902 80.9344C71.3247 81.0401 71.3919 81.2177 71.3919 81.4675V89.5061H72.8614C73.1111 89.5061 73.3032 89.5686 73.4376 89.6934C73.5817 89.8183 73.6537 90.0056 73.6537 90.2553C73.6537 90.505 73.5817 90.6971 73.4376 90.8315C73.3032 90.966 73.1111 91.0332 72.8614 91.0332H67.9344ZM76.206 91.1052C75.8795 91.1052 75.6153 91.0044 75.4137 90.8027C75.2216 90.601 75.1255 90.3417 75.1255 90.0248C75.1255 89.7174 75.2216 89.4677 75.4137 89.2756C75.6153 89.074 75.8795 88.9731 76.206 88.9731C76.5421 88.9731 76.8015 89.074 76.9839 89.2756C77.176 89.4677 77.2721 89.7174 77.2721 90.0248C77.2721 90.3417 77.176 90.601 76.9839 90.8027C76.8015 91.0044 76.5421 91.1052 76.206 91.1052ZM76.206 86.0486C75.8795 86.0486 75.6153 85.9478 75.4137 85.7461C75.2216 85.5444 75.1255 85.2899 75.1255 84.9826C75.1255 84.6656 75.2216 84.4111 75.4137 84.219C75.6153 84.0174 75.8795 83.9165 76.206 83.9165C76.5421 83.9165 76.8015 84.0174 76.9839 84.219C77.176 84.4111 77.2721 84.6656 77.2721 84.9826C77.2721 85.2899 77.176 85.5444 76.9839 85.7461C76.8015 85.9478 76.5421 86.0486 76.206 86.0486ZM87.8843 91.1773C86.8279 91.1773 85.9203 90.966 85.1615 90.5434C84.4124 90.1112 83.8362 89.5061 83.4328 88.7282C83.0294 87.9407 82.8277 87.0139 82.8277 85.9478C82.8277 85.1507 82.943 84.4351 83.1735 83.8013C83.404 83.1578 83.7353 82.6103 84.1675 82.159C84.5997 81.698 85.1279 81.3474 85.7522 81.1073C86.3861 80.8576 87.0968 80.7327 87.8843 80.7327C88.4125 80.7327 88.9312 80.8 89.4402 80.9344C89.9492 81.0689 90.3958 81.261 90.78 81.5107C90.9817 81.6355 91.1161 81.7892 91.1833 81.9717C91.2506 82.1445 91.265 82.3174 91.2266 82.4903C91.1882 82.6536 91.1065 82.7928 90.9817 82.9081C90.8664 83.0233 90.7175 83.0906 90.5351 83.1098C90.3622 83.1194 90.1701 83.0569 89.9588 82.9225C89.6611 82.7304 89.3393 82.5911 88.9936 82.5047C88.6478 82.4183 88.2973 82.375 87.9419 82.375C87.26 82.375 86.6838 82.5143 86.2132 82.7928C85.7426 83.0713 85.3872 83.4747 85.1471 84.003C84.907 84.5312 84.787 85.1795 84.787 85.9478C84.787 86.7065 84.907 87.3548 85.1471 87.8926C85.3872 88.4305 85.7426 88.8387 86.2132 89.1172C86.6838 89.3957 87.26 89.535 87.9419 89.535C88.3069 89.535 88.6671 89.4917 89.0224 89.4053C89.3778 89.3093 89.7139 89.1652 90.0308 88.9731C90.2421 88.8483 90.4294 88.7954 90.5927 88.8146C90.7656 88.8242 90.9096 88.8819 91.0249 88.9875C91.1401 89.0932 91.217 89.2276 91.2554 89.3909C91.2938 89.5446 91.2842 89.7078 91.2266 89.8807C91.1689 90.044 91.0537 90.188 90.8808 90.3129C90.4967 90.5914 90.0357 90.8075 89.4978 90.9612C88.9696 91.1052 88.4318 91.1773 87.8843 91.1773ZM93.78 91.1485C93.4822 91.1485 93.2517 91.0716 93.0885 90.918C92.9348 90.7547 92.858 90.5242 92.858 90.2265V84.7809C92.858 84.4832 92.9348 84.2575 93.0885 84.1038C93.2421 83.9501 93.4582 83.8733 93.7368 83.8733C94.0153 83.8733 94.2314 83.9501 94.385 84.1038C94.5387 84.2575 94.6155 84.4832 94.6155 84.7809V85.6885H94.4715C94.6059 85.1122 94.87 84.6752 95.2638 84.3775C95.6576 84.0798 96.181 83.9021 96.8341 83.8445C97.0358 83.8253 97.1943 83.8781 97.3095 84.003C97.4344 84.1182 97.5064 84.3007 97.5256 84.5504C97.5448 84.7905 97.4872 84.9874 97.3527 85.141C97.2279 85.2851 97.0358 85.3715 96.7765 85.4004L96.4595 85.4292C95.8737 85.4868 95.4319 85.6693 95.1342 85.9766C94.8364 86.2743 94.6876 86.6969 94.6876 87.2444V90.2265C94.6876 90.5242 94.6107 90.7547 94.4571 90.918C94.3034 91.0716 94.0777 91.1485 93.78 91.1485ZM101.939 91.1773C101.142 91.1773 100.455 91.0284 99.8788 90.7307C99.3025 90.4329 98.8559 90.0104 98.539 89.4629C98.2317 88.9155 98.078 88.2672 98.078 87.5181C98.078 86.7882 98.2269 86.1495 98.5246 85.602C98.8319 85.0546 99.2497 84.6272 99.7779 84.3199C100.316 84.003 100.926 83.8445 101.608 83.8445C102.107 83.8445 102.554 83.9261 102.947 84.0894C103.351 84.2527 103.692 84.488 103.97 84.7953C104.258 85.1026 104.474 85.4772 104.618 85.919C104.772 86.3512 104.849 86.841 104.849 87.3884C104.849 87.5613 104.787 87.6958 104.662 87.7918C104.546 87.8782 104.378 87.9215 104.157 87.9215H99.533V86.8842H103.581L103.351 87.1003C103.351 86.6585 103.283 86.2887 103.149 85.991C103.024 85.6933 102.837 85.4676 102.587 85.3139C102.347 85.1507 102.045 85.069 101.68 85.069C101.276 85.069 100.93 85.1651 100.642 85.3571C100.364 85.5396 100.148 85.8037 99.994 86.1495C99.85 86.4856 99.7779 86.889 99.7779 87.3596V87.4605C99.7779 88.248 99.9604 88.8387 100.325 89.2324C100.7 89.6166 101.247 89.8087 101.968 89.8087C102.217 89.8087 102.496 89.7799 102.803 89.7222C103.12 89.655 103.418 89.5446 103.696 89.3909C103.898 89.2756 104.076 89.2276 104.229 89.2468C104.383 89.2564 104.503 89.3093 104.59 89.4053C104.686 89.5013 104.743 89.6214 104.763 89.7655C104.782 89.8999 104.753 90.0392 104.676 90.1832C104.609 90.3273 104.489 90.4522 104.316 90.5578C103.98 90.7691 103.591 90.9276 103.149 91.0332C102.717 91.1292 102.313 91.1773 101.939 91.1773ZM108.674 91.1773C108.165 91.1773 107.709 91.0812 107.306 90.8891C106.912 90.6875 106.6 90.4185 106.369 90.0824C106.149 89.7462 106.038 89.3669 106.038 88.9443C106.038 88.4257 106.173 88.0175 106.442 87.7198C106.71 87.4124 107.147 87.1915 107.752 87.0571C108.358 86.9226 109.169 86.8554 110.187 86.8554H110.907V87.8926H110.202C109.606 87.8926 109.131 87.9215 108.775 87.9791C108.42 88.0367 108.165 88.1375 108.012 88.2816C107.868 88.4161 107.796 88.6082 107.796 88.8579C107.796 89.1748 107.906 89.4341 108.127 89.6358C108.348 89.8375 108.655 89.9383 109.049 89.9383C109.366 89.9383 109.645 89.8663 109.885 89.7222C110.134 89.5686 110.331 89.3621 110.475 89.1028C110.619 88.8435 110.691 88.5457 110.691 88.2096V86.5529C110.691 86.0727 110.586 85.7269 110.374 85.5156C110.163 85.3043 109.808 85.1987 109.308 85.1987C109.03 85.1987 108.727 85.2323 108.401 85.2995C108.084 85.3667 107.748 85.482 107.392 85.6453C107.21 85.7317 107.047 85.7557 106.903 85.7173C106.768 85.6789 106.662 85.602 106.586 85.4868C106.509 85.3619 106.47 85.2275 106.47 85.0834C106.47 84.9394 106.509 84.8001 106.586 84.6656C106.662 84.5216 106.792 84.4159 106.975 84.3487C107.416 84.1662 107.839 84.0366 108.242 83.9597C108.655 83.8829 109.03 83.8445 109.366 83.8445C110.057 83.8445 110.624 83.9501 111.066 84.1614C111.517 84.3727 111.853 84.6945 112.074 85.1266C112.295 85.5492 112.406 86.0967 112.406 86.769V90.2265C112.406 90.5242 112.334 90.7547 112.19 90.918C112.046 91.0716 111.839 91.1485 111.57 91.1485C111.301 91.1485 111.09 91.0716 110.936 90.918C110.792 90.7547 110.72 90.5242 110.72 90.2265V89.535H110.835C110.768 89.8711 110.634 90.164 110.432 90.4137C110.24 90.6538 109.995 90.8411 109.697 90.9756C109.4 91.11 109.059 91.1773 108.674 91.1773ZM117.541 91.1773C116.916 91.1773 116.393 91.0716 115.97 90.8603C115.557 90.649 115.25 90.3417 115.048 89.9383C114.847 89.5253 114.746 89.0163 114.746 88.4113V85.3427H113.997C113.766 85.3427 113.588 85.2851 113.464 85.1699C113.339 85.045 113.276 84.8769 113.276 84.6656C113.276 84.4447 113.339 84.2767 113.464 84.1614C113.588 84.0462 113.766 83.9885 113.997 83.9885H114.746V82.6776C114.746 82.3798 114.823 82.1542 114.976 82.0005C115.139 81.8468 115.365 81.77 115.653 81.77C115.941 81.77 116.162 81.8468 116.316 82.0005C116.47 82.1542 116.547 82.3798 116.547 82.6776V83.9885H118.074C118.304 83.9885 118.482 84.0462 118.607 84.1614C118.731 84.2767 118.794 84.4447 118.794 84.6656C118.794 84.8769 118.731 85.045 118.607 85.1699C118.482 85.2851 118.304 85.3427 118.074 85.3427H116.547V88.3104C116.547 88.7714 116.647 89.1172 116.849 89.3477C117.051 89.5782 117.377 89.6934 117.829 89.6934C117.992 89.6934 118.136 89.679 118.261 89.6502C118.386 89.6214 118.496 89.6022 118.592 89.5926C118.707 89.583 118.803 89.6214 118.88 89.7078C118.957 89.7847 118.996 89.9479 118.996 90.1976C118.996 90.3897 118.962 90.5626 118.895 90.7163C118.837 90.8603 118.727 90.9612 118.563 91.0188C118.439 91.0572 118.275 91.0908 118.074 91.1196C117.872 91.1581 117.694 91.1773 117.541 91.1773ZM123.324 91.1773C122.527 91.1773 121.84 91.0284 121.264 90.7307C120.688 90.4329 120.241 90.0104 119.924 89.4629C119.617 88.9155 119.463 88.2672 119.463 87.5181C119.463 86.7882 119.612 86.1495 119.91 85.602C120.217 85.0546 120.635 84.6272 121.163 84.3199C121.701 84.003 122.311 83.8445 122.993 83.8445C123.492 83.8445 123.939 83.9261 124.333 84.0894C124.736 84.2527 125.077 84.488 125.355 84.7953C125.643 85.1026 125.86 85.4772 126.004 85.919C126.157 86.3512 126.234 86.841 126.234 87.3884C126.234 87.5613 126.172 87.6958 126.047 87.7918C125.932 87.8782 125.764 87.9215 125.543 87.9215H120.918V86.8842H124.966L124.736 87.1003C124.736 86.6585 124.669 86.2887 124.534 85.991C124.409 85.6933 124.222 85.4676 123.972 85.3139C123.732 85.1507 123.43 85.069 123.065 85.069C122.661 85.069 122.316 85.1651 122.028 85.3571C121.749 85.5396 121.533 85.8037 121.379 86.1495C121.235 86.4856 121.163 86.889 121.163 87.3596V87.4605C121.163 88.248 121.346 88.8387 121.711 89.2324C122.085 89.6166 122.633 89.8087 123.353 89.8087C123.603 89.8087 123.881 89.7799 124.188 89.7222C124.505 89.655 124.803 89.5446 125.082 89.3909C125.283 89.2756 125.461 89.2276 125.615 89.2468C125.768 89.2564 125.888 89.3093 125.975 89.4053C126.071 89.5013 126.129 89.6214 126.148 89.7655C126.167 89.8999 126.138 90.0392 126.061 90.1832C125.994 90.3273 125.874 90.4522 125.701 90.5578C125.365 90.7691 124.976 90.9276 124.534 91.0332C124.102 91.1292 123.699 91.1773 123.324 91.1773ZM134.051 91.1773C133.542 91.1773 133.086 91.0812 132.682 90.8891C132.288 90.6875 131.976 90.4185 131.746 90.0824C131.525 89.7462 131.414 89.3669 131.414 88.9443C131.414 88.4257 131.549 88.0175 131.818 87.7198C132.087 87.4124 132.524 87.1915 133.129 87.0571C133.734 86.9226 134.545 86.8554 135.563 86.8554H136.284V87.8926H135.578C134.982 87.8926 134.507 87.9215 134.152 87.9791C133.796 88.0367 133.542 88.1375 133.388 88.2816C133.244 88.4161 133.172 88.6082 133.172 88.8579C133.172 89.1748 133.282 89.4341 133.503 89.6358C133.724 89.8375 134.032 89.9383 134.425 89.9383C134.742 89.9383 135.021 89.8663 135.261 89.7222C135.511 89.5686 135.708 89.3621 135.852 89.1028C135.996 88.8435 136.068 88.5457 136.068 88.2096V86.5529C136.068 86.0727 135.962 85.7269 135.751 85.5156C135.539 85.3043 135.184 85.1987 134.685 85.1987C134.406 85.1987 134.104 85.2323 133.777 85.2995C133.46 85.3667 133.124 85.482 132.769 85.6453C132.586 85.7317 132.423 85.7557 132.279 85.7173C132.144 85.6789 132.039 85.602 131.962 85.4868C131.885 85.3619 131.847 85.2275 131.847 85.0834C131.847 84.9394 131.885 84.8001 131.962 84.6656C132.039 84.5216 132.168 84.4159 132.351 84.3487C132.793 84.1662 133.215 84.0366 133.619 83.9597C134.032 83.8829 134.406 83.8445 134.742 83.8445C135.434 83.8445 136 83.9501 136.442 84.1614C136.894 84.3727 137.23 84.6945 137.451 85.1266C137.672 85.5492 137.782 86.0967 137.782 86.769V90.2265C137.782 90.5242 137.71 90.7547 137.566 90.918C137.422 91.0716 137.215 91.1485 136.946 91.1485C136.678 91.1485 136.466 91.0716 136.313 90.918C136.169 90.7547 136.096 90.5242 136.096 90.2265V89.535H136.212C136.145 89.8711 136.01 90.164 135.808 90.4137C135.616 90.6538 135.371 90.8411 135.074 90.9756C134.776 91.11 134.435 91.1773 134.051 91.1773ZM144.833 91.0332C144.517 91.0332 144.272 90.9516 144.099 90.7883C143.935 90.6154 143.854 90.3705 143.854 90.0536V81.8564C143.854 81.5395 143.935 81.2994 144.099 81.1361C144.272 80.9632 144.517 80.8768 144.833 80.8768H148.291C149.002 80.8768 149.607 80.9824 150.106 81.1937C150.606 81.405 150.985 81.7076 151.244 82.1013C151.513 82.4951 151.648 82.9657 151.648 83.5131C151.648 84.1278 151.47 84.6464 151.115 85.069C150.759 85.4916 150.274 85.7749 149.66 85.919V85.7029C150.37 85.8085 150.923 86.0775 151.316 86.5096C151.71 86.9418 151.907 87.5037 151.907 88.1952C151.907 89.098 151.6 89.7991 150.985 90.2985C150.38 90.7883 149.535 91.0332 148.449 91.0332H144.833ZM145.626 89.6358H148.219C148.872 89.6358 149.352 89.5109 149.66 89.2612C149.967 89.0019 150.121 88.6178 150.121 88.1087C150.121 87.5901 149.967 87.2059 149.66 86.9562C149.352 86.7065 148.872 86.5817 148.219 86.5817H145.626V89.6358ZM145.626 85.1843H147.974C148.608 85.1843 149.079 85.0642 149.386 84.8241C149.703 84.5744 149.861 84.2094 149.861 83.7292C149.861 83.249 149.703 82.8889 149.386 82.6488C149.079 82.3991 148.608 82.2742 147.974 82.2742H145.626V85.1843ZM156.229 91.1773C155.643 91.1773 155.158 91.0716 154.774 90.8603C154.39 90.6394 154.102 90.3129 153.91 89.8807C153.727 89.4485 153.636 88.9107 153.636 88.2672V84.7809C153.636 84.4736 153.713 84.2479 153.867 84.1038C154.02 83.9501 154.241 83.8733 154.529 83.8733C154.817 83.8733 155.038 83.9501 155.192 84.1038C155.355 84.2479 155.437 84.4736 155.437 84.7809V88.296C155.437 88.7954 155.538 89.1652 155.739 89.4053C155.941 89.6454 156.263 89.7655 156.705 89.7655C157.185 89.7655 157.579 89.6022 157.886 89.2756C158.193 88.9395 158.347 88.4977 158.347 87.9503V84.7809C158.347 84.4736 158.424 84.2479 158.577 84.1038C158.731 83.9501 158.952 83.8733 159.24 83.8733C159.528 83.8733 159.749 83.9501 159.903 84.1038C160.066 84.2479 160.148 84.4736 160.148 84.7809V90.2265C160.148 90.8411 159.855 91.1485 159.269 91.1485C158.99 91.1485 158.774 91.0716 158.621 90.918C158.467 90.7547 158.39 90.5242 158.39 90.2265V89.1316L158.592 89.5638C158.39 90.0824 158.083 90.481 157.67 90.7595C157.267 91.038 156.786 91.1773 156.229 91.1773ZM164.81 91.1773C164.196 91.1773 163.653 91.0284 163.183 90.7307C162.722 90.4329 162.361 90.0104 162.102 89.4629C161.843 88.9059 161.713 88.2528 161.713 87.5037C161.713 86.7449 161.843 86.0967 162.102 85.5588C162.361 85.0114 162.722 84.5888 163.183 84.2911C163.653 83.9933 164.196 83.8445 164.81 83.8445C165.396 83.8445 165.905 83.9885 166.338 84.2767C166.779 84.5648 167.077 84.9442 167.231 85.4148H167.072V81.6691C167.072 81.3714 167.149 81.1457 167.303 80.992C167.456 80.8384 167.677 80.7615 167.965 80.7615C168.254 80.7615 168.474 80.8384 168.628 80.992C168.791 81.1457 168.873 81.3714 168.873 81.6691V90.2265C168.873 90.5242 168.796 90.7547 168.643 90.918C168.489 91.0716 168.268 91.1485 167.98 91.1485C167.692 91.1485 167.471 91.0716 167.317 90.918C167.163 90.7547 167.087 90.5242 167.087 90.2265V89.1028L167.245 89.535C167.101 90.0344 166.808 90.4329 166.366 90.7307C165.925 91.0284 165.406 91.1773 164.81 91.1773ZM165.315 89.8087C165.67 89.8087 165.982 89.7222 166.251 89.5494C166.52 89.3765 166.726 89.122 166.871 88.7858C167.024 88.4401 167.101 88.0127 167.101 87.5037C167.101 86.7353 166.938 86.1639 166.611 85.7893C166.285 85.4052 165.853 85.2131 165.315 85.2131C164.959 85.2131 164.647 85.2995 164.378 85.4724C164.109 85.6357 163.898 85.8902 163.744 86.2359C163.6 86.5721 163.528 86.9947 163.528 87.5037C163.528 88.2624 163.692 88.8387 164.018 89.2324C164.345 89.6166 164.777 89.8087 165.315 89.8087ZM174.105 93.7704C173.586 93.7704 173.082 93.7224 172.592 93.6263C172.112 93.5303 171.675 93.3814 171.281 93.1797C171.099 93.0837 170.974 92.9684 170.907 92.834C170.849 92.6995 170.83 92.5603 170.849 92.4162C170.878 92.2817 170.935 92.1617 171.022 92.056C171.118 91.9504 171.233 91.8784 171.368 91.84C171.502 91.8015 171.641 91.8207 171.785 91.8976C172.208 92.1089 172.607 92.2433 172.981 92.301C173.365 92.3682 173.692 92.4018 173.961 92.4018C174.604 92.4018 175.084 92.2433 175.401 91.9264C175.728 91.6191 175.891 91.1581 175.891 90.5434V89.2468H176.021C175.877 89.7366 175.574 90.1304 175.113 90.4281C174.662 90.7163 174.148 90.8603 173.572 90.8603C172.938 90.8603 172.386 90.7163 171.915 90.4281C171.444 90.1304 171.08 89.7174 170.82 89.1892C170.561 88.661 170.431 88.0463 170.431 87.3452C170.431 86.817 170.503 86.3416 170.647 85.919C170.801 85.4868 171.012 85.117 171.281 84.8097C171.56 84.5024 171.891 84.2671 172.275 84.1038C172.669 83.9309 173.101 83.8445 173.572 83.8445C174.167 83.8445 174.686 83.9933 175.128 84.2911C175.579 84.5792 175.872 84.9634 176.006 85.4436L175.862 85.8037V84.7809C175.862 84.4832 175.939 84.2575 176.093 84.1038C176.256 83.9501 176.477 83.8733 176.756 83.8733C177.044 83.8733 177.265 83.9501 177.418 84.1038C177.572 84.2575 177.649 84.4832 177.649 84.7809V90.3273C177.649 91.4702 177.346 92.3298 176.741 92.906C176.136 93.4823 175.257 93.7704 174.105 93.7704ZM174.062 89.4917C174.436 89.4917 174.758 89.4053 175.027 89.2324C175.296 89.0595 175.502 88.8146 175.646 88.4977C175.8 88.1712 175.877 87.787 175.877 87.3452C175.877 86.6825 175.714 86.1639 175.387 85.7893C175.06 85.4052 174.619 85.2131 174.062 85.2131C173.687 85.2131 173.365 85.2995 173.096 85.4724C172.827 85.6453 172.616 85.8902 172.463 86.2071C172.318 86.524 172.246 86.9034 172.246 87.3452C172.246 88.0079 172.41 88.5313 172.736 88.9155C173.063 89.2997 173.505 89.4917 174.062 89.4917ZM183.067 91.1773C182.269 91.1773 181.583 91.0284 181.006 90.7307C180.43 90.4329 179.984 90.0104 179.667 89.4629C179.359 88.9155 179.206 88.2672 179.206 87.5181C179.206 86.7882 179.355 86.1495 179.652 85.602C179.96 85.0546 180.377 84.6272 180.906 84.3199C181.443 84.003 182.053 83.8445 182.735 83.8445C183.235 83.8445 183.681 83.9261 184.075 84.0894C184.478 84.2527 184.819 84.488 185.098 84.7953C185.386 85.1026 185.602 85.4772 185.746 85.919C185.9 86.3512 185.977 86.841 185.977 87.3884C185.977 87.5613 185.914 87.6958 185.789 87.7918C185.674 87.8782 185.506 87.9215 185.285 87.9215H180.661V86.8842H184.709L184.478 87.1003C184.478 86.6585 184.411 86.2887 184.277 85.991C184.152 85.6933 183.965 85.4676 183.715 85.3139C183.475 85.1507 183.172 85.069 182.807 85.069C182.404 85.069 182.058 85.1651 181.77 85.3571C181.491 85.5396 181.275 85.8037 181.122 86.1495C180.978 86.4856 180.906 86.889 180.906 87.3596V87.4605C180.906 88.248 181.088 88.8387 181.453 89.2324C181.828 89.6166 182.375 89.8087 183.095 89.8087C183.345 89.8087 183.624 89.7799 183.931 89.7222C184.248 89.655 184.546 89.5446 184.824 89.3909C185.026 89.2756 185.204 89.2276 185.357 89.2468C185.511 89.2564 185.631 89.3093 185.717 89.4053C185.813 89.5013 185.871 89.6214 185.89 89.7655C185.909 89.8999 185.881 90.0392 185.804 90.1832C185.737 90.3273 185.616 90.4522 185.444 90.5578C185.107 90.7691 184.718 90.9276 184.277 91.0332C183.845 91.1292 183.441 91.1773 183.067 91.1773ZM190.682 91.1773C190.057 91.1773 189.534 91.0716 189.111 90.8603C188.698 90.649 188.391 90.3417 188.189 89.9383C187.988 89.5253 187.887 89.0163 187.887 88.4113V85.3427H187.138C186.907 85.3427 186.73 85.2851 186.605 85.1699C186.48 85.045 186.417 84.8769 186.417 84.6656C186.417 84.4447 186.48 84.2767 186.605 84.1614C186.73 84.0462 186.907 83.9885 187.138 83.9885H187.887V82.6776C187.887 82.3798 187.964 82.1542 188.117 82.0005C188.281 81.8468 188.506 81.77 188.794 81.77C189.083 81.77 189.303 81.8468 189.457 82.0005C189.611 82.1542 189.688 82.3798 189.688 82.6776V83.9885H191.215C191.445 83.9885 191.623 84.0462 191.748 84.1614C191.873 84.2767 191.935 84.4447 191.935 84.6656C191.935 84.8769 191.873 85.045 191.748 85.1699C191.623 85.2851 191.445 85.3427 191.215 85.3427H189.688V88.3104C189.688 88.7714 189.788 89.1172 189.99 89.3477C190.192 89.5782 190.518 89.6934 190.97 89.6934C191.133 89.6934 191.277 89.679 191.402 89.6502C191.527 89.6214 191.637 89.6022 191.733 89.5926C191.849 89.583 191.945 89.6214 192.021 89.7078C192.098 89.7847 192.137 89.9479 192.137 90.1976C192.137 90.3897 192.103 90.5626 192.036 90.7163C191.978 90.8603 191.868 90.9612 191.704 91.0188C191.58 91.0572 191.416 91.0908 191.215 91.1196C191.013 91.1581 190.835 91.1773 190.682 91.1773Z" fill="black"/>
<path d="M419.944 83.0721L424.746 87.8741L423.626 88.9946L419.944 85.313L416.263 88.9946L415.142 87.8741L419.944 83.0721Z" fill="black"/>
<rect x="30.415" y="116.851" width="407.377" height="12.8056" fill="#D9D9D9"/>
<rect x="30.415" y="134.458" width="188.882" height="12.8056" fill="#D9D9D9"/>
<rect x="43.2207" y="188.882" width="394.571" height="12.8056" fill="#D9D9D9"/>
<circle cx="33.6164" cy="195.284" r="3.20139" fill="#252525"/>
<rect x="43.2207" y="256.11" width="394.571" height="12.8056" fill="#D9D9D9"/>
<circle cx="33.6164" cy="262.514" r="3.20139" fill="#252525"/>
<rect x="43.2207" y="281.722" width="394.571" height="12.8056" fill="#D9D9D9"/>
<circle cx="33.6164" cy="288.125" r="3.20139" fill="#252525"/>
<rect x="43.2207" y="214.494" width="394.571" height="12.8056" fill="#D9D9D9"/>
<rect x="43.2207" y="230.5" width="283.323" height="12.8056" fill="#D9D9D9"/>
<circle cx="33.6164" cy="220.896" r="3.20139" fill="#252525"/>
<rect width="415.38" height="36.0069" transform="translate(22.4116 315.337)" fill="#E9F1FE"/>
<path d="M35.025 338.485C34.6025 338.485 34.1799 338.451 33.7573 338.384C33.3347 338.326 32.9361 338.235 32.5616 338.11C32.187 337.976 31.8509 337.813 31.5531 337.621C31.3803 337.505 31.2602 337.366 31.193 337.203C31.1257 337.039 31.1017 336.881 31.1209 336.727C31.1498 336.564 31.2122 336.425 31.3082 336.31C31.4139 336.185 31.5435 336.108 31.6972 336.079C31.8509 336.05 32.0189 336.093 32.2014 336.209C32.624 336.458 33.0706 336.641 33.5412 336.756C34.0118 336.871 34.5064 336.929 35.025 336.929C35.7838 336.929 36.336 336.804 36.6818 336.554C37.0275 336.295 37.2004 335.964 37.2004 335.56C37.2004 335.224 37.0755 334.96 36.8258 334.768C36.5857 334.576 36.1679 334.418 35.5725 334.293L33.9878 333.961C33.0754 333.769 32.3935 333.447 31.9421 332.996C31.5003 332.535 31.2794 331.93 31.2794 331.181C31.2794 330.71 31.3755 330.283 31.5675 329.899C31.7596 329.515 32.0285 329.183 32.3743 328.905C32.7296 328.626 33.1474 328.415 33.6276 328.271C34.1174 328.117 34.6553 328.04 35.2411 328.04C35.8174 328.04 36.3648 328.112 36.8834 328.256C37.4021 328.401 37.8679 328.612 38.2809 328.89C38.4345 328.996 38.5354 329.126 38.5834 329.279C38.641 329.433 38.6554 329.587 38.6266 329.74C38.5978 329.884 38.5306 330.009 38.4249 330.115C38.3193 330.22 38.1848 330.283 38.0215 330.302C37.8679 330.321 37.6902 330.273 37.4885 330.158C37.1332 329.956 36.773 329.812 36.408 329.726C36.0431 329.639 35.6493 329.596 35.2267 329.596C34.7849 329.596 34.4056 329.659 34.0886 329.784C33.7717 329.908 33.5268 330.086 33.3539 330.317C33.1906 330.537 33.109 330.802 33.109 331.109C33.109 331.455 33.2243 331.733 33.4548 331.944C33.6853 332.146 34.079 332.305 34.6361 332.42L36.2064 332.751C37.1572 332.953 37.8631 333.27 38.3241 333.702C38.7947 334.134 39.03 334.71 39.03 335.431C39.03 335.892 38.9339 336.31 38.7419 336.684C38.5594 337.059 38.2905 337.38 37.9351 337.649C37.5894 337.918 37.1716 338.125 36.6818 338.269C36.1919 338.413 35.6397 338.485 35.025 338.485ZM43.6765 338.485C43.0522 338.485 42.5288 338.379 42.1062 338.168C41.6932 337.957 41.3859 337.649 41.1842 337.246C40.9825 336.833 40.8816 336.324 40.8816 335.719V332.65H40.1325C39.902 332.65 39.7243 332.593 39.5995 332.477C39.4746 332.353 39.4122 332.185 39.4122 331.973C39.4122 331.752 39.4746 331.584 39.5995 331.469C39.7243 331.354 39.902 331.296 40.1325 331.296H40.8816V329.985C40.8816 329.687 40.9585 329.462 41.1121 329.308C41.2754 329.154 41.5011 329.078 41.7892 329.078C42.0774 329.078 42.2983 329.154 42.4519 329.308C42.6056 329.462 42.6824 329.687 42.6824 329.985V331.296H44.2095C44.44 331.296 44.6177 331.354 44.7425 331.469C44.8674 331.584 44.9298 331.752 44.9298 331.973C44.9298 332.185 44.8674 332.353 44.7425 332.477C44.6177 332.593 44.44 332.65 44.2095 332.65H42.6824V335.618C42.6824 336.079 42.7833 336.425 42.985 336.655C43.1866 336.886 43.5132 337.001 43.9646 337.001C44.1279 337.001 44.2719 336.987 44.3968 336.958C44.5216 336.929 44.6321 336.91 44.7281 336.9C44.8434 336.891 44.9394 336.929 45.0162 337.015C45.0931 337.092 45.1315 337.256 45.1315 337.505C45.1315 337.697 45.0979 337.87 45.0306 338.024C44.973 338.168 44.8626 338.269 44.6993 338.326C44.5744 338.365 44.4112 338.398 44.2095 338.427C44.0078 338.466 43.8301 338.485 43.6765 338.485ZM49.46 338.485C48.6629 338.485 47.9762 338.336 47.3999 338.038C46.8237 337.741 46.3771 337.318 46.0601 336.771C45.7528 336.223 45.5991 335.575 45.5991 334.826C45.5991 334.096 45.748 333.457 46.0457 332.91C46.3531 332.362 46.7708 331.935 47.2991 331.628C47.8369 331.311 48.4468 331.152 49.1287 331.152C49.6281 331.152 50.0747 331.234 50.4685 331.397C50.8718 331.56 51.2128 331.796 51.4913 332.103C51.7794 332.41 51.9955 332.785 52.1396 333.227C52.2932 333.659 52.3701 334.149 52.3701 334.696C52.3701 334.869 52.3076 335.003 52.1828 335.099C52.0675 335.186 51.8995 335.229 51.6786 335.229H47.0542V334.192H51.1023L50.8718 334.408C50.8718 333.966 50.8046 333.596 50.6701 333.299C50.5453 333.001 50.358 332.775 50.1083 332.622C49.8682 332.458 49.5657 332.377 49.2007 332.377C48.7973 332.377 48.4516 332.473 48.1635 332.665C47.8849 332.847 47.6688 333.111 47.5152 333.457C47.3711 333.793 47.2991 334.197 47.2991 334.667V334.768C47.2991 335.556 47.4816 336.146 47.8465 336.54C48.2211 336.924 48.7685 337.116 49.4888 337.116C49.7385 337.116 50.0171 337.087 50.3244 337.03C50.6413 336.963 50.9391 336.852 51.2176 336.699C51.4193 336.583 51.5969 336.535 51.7506 336.554C51.9043 336.564 52.0243 336.617 52.1108 336.713C52.2068 336.809 52.2644 336.929 52.2836 337.073C52.3028 337.208 52.274 337.347 52.1972 337.491C52.13 337.635 52.0099 337.76 51.837 337.865C51.5009 338.077 51.1119 338.235 50.6701 338.341C50.238 338.437 49.8346 338.485 49.46 338.485ZM54.7694 341.049C54.4813 341.049 54.2604 340.972 54.1067 340.819C53.9531 340.665 53.8762 340.439 53.8762 340.142V332.089C53.8762 331.791 53.9531 331.565 54.1067 331.411C54.2604 331.258 54.4765 331.181 54.755 331.181C55.0431 331.181 55.264 331.258 55.4177 331.411C55.5714 331.565 55.6482 331.791 55.6482 332.089V333.212L55.4897 332.78C55.6338 332.29 55.9267 331.896 56.3685 331.599C56.8199 331.301 57.3433 331.152 57.9388 331.152C58.5534 331.152 59.0913 331.301 59.5523 331.599C60.0229 331.896 60.3878 332.319 60.6472 332.866C60.9065 333.404 61.0361 334.053 61.0361 334.811C61.0361 335.56 60.9065 336.213 60.6472 336.771C60.3878 337.318 60.0277 337.741 59.5667 338.038C59.1057 338.336 58.5631 338.485 57.9388 338.485C57.3529 338.485 56.8391 338.341 56.3973 338.053C55.9555 337.755 55.6578 337.371 55.5041 336.9H55.677V340.142C55.677 340.439 55.5954 340.665 55.4321 340.819C55.2784 340.972 55.0575 341.049 54.7694 341.049ZM57.4346 337.116C57.7899 337.116 58.1021 337.03 58.371 336.857C58.6399 336.684 58.8464 336.43 58.9904 336.093C59.1441 335.748 59.2209 335.32 59.2209 334.811C59.2209 334.043 59.0577 333.472 58.7311 333.097C58.4046 332.713 57.9724 332.521 57.4346 332.521C57.0792 332.521 56.7671 332.607 56.4982 332.78C56.2292 332.943 56.0179 333.198 55.8643 333.544C55.7202 333.88 55.6482 334.302 55.6482 334.811C55.6482 335.57 55.8115 336.146 56.138 336.54C56.4645 336.924 56.8967 337.116 57.4346 337.116ZM67.5651 338.341C67.2578 338.341 67.0321 338.274 66.888 338.139C66.7536 337.995 66.6863 337.789 66.6863 337.52C66.6863 337.356 66.7295 337.198 66.816 337.044C66.9024 336.891 67.0273 336.727 67.1905 336.554L70.0862 333.472C70.528 333.011 70.8449 332.593 71.037 332.218C71.2291 331.834 71.3251 331.45 71.3251 331.066C71.3251 330.585 71.1715 330.22 70.8641 329.971C70.5664 329.721 70.1294 329.596 69.5532 329.596C69.2266 329.596 68.9001 329.644 68.5735 329.74C68.247 329.827 67.9157 329.98 67.5795 330.201C67.4066 330.317 67.2434 330.365 67.0897 330.345C66.9456 330.326 66.816 330.264 66.7007 330.158C66.5951 330.052 66.5231 329.923 66.4846 329.769C66.4462 329.615 66.451 329.462 66.499 329.308C66.5567 329.145 66.6719 329.006 66.8448 328.89C67.2578 328.612 67.7188 328.401 68.2278 328.256C68.7464 328.112 69.265 328.04 69.7837 328.04C70.5136 328.04 71.1283 328.151 71.6277 328.372C72.1271 328.593 72.5064 328.914 72.7658 329.337C73.0251 329.759 73.1547 330.273 73.1547 330.878C73.1547 331.282 73.0875 331.676 72.953 332.06C72.8282 332.444 72.6313 332.833 72.3624 333.227C72.1031 333.62 71.7621 334.038 71.3395 334.48L68.6312 337.304V336.814H72.8666C73.1259 336.814 73.3228 336.876 73.4573 337.001C73.5917 337.126 73.659 337.313 73.659 337.563C73.659 337.813 73.5917 338.005 73.4573 338.139C73.3228 338.274 73.1259 338.341 72.8666 338.341H67.5651ZM76.168 338.413C75.8415 338.413 75.5774 338.312 75.3757 338.11C75.1836 337.909 75.0875 337.649 75.0875 337.332C75.0875 337.025 75.1836 336.775 75.3757 336.583C75.5774 336.382 75.8415 336.281 76.168 336.281C76.5042 336.281 76.7635 336.382 76.946 336.583C77.138 336.775 77.2341 337.025 77.2341 337.332C77.2341 337.649 77.138 337.909 76.946 338.11C76.7635 338.312 76.5042 338.413 76.168 338.413ZM76.168 333.356C75.8415 333.356 75.5774 333.255 75.3757 333.054C75.1836 332.852 75.0875 332.598 75.0875 332.29C75.0875 331.973 75.1836 331.719 75.3757 331.527C75.5774 331.325 75.8415 331.224 76.168 331.224C76.5042 331.224 76.7635 331.325 76.946 331.527C77.138 331.719 77.2341 331.973 77.2341 332.29C77.2341 332.598 77.138 332.852 76.946 333.054C76.7635 333.255 76.5042 333.356 76.168 333.356ZM84.1007 338.341C83.7838 338.341 83.5389 338.259 83.366 338.096C83.2027 337.923 83.1211 337.678 83.1211 337.361V329.164C83.1211 328.847 83.2027 328.607 83.366 328.444C83.5389 328.271 83.7838 328.184 84.1007 328.184H87.5582C88.2689 328.184 88.874 328.29 89.3734 328.501C89.8728 328.713 90.2522 329.015 90.5115 329.409C90.7804 329.803 90.9149 330.273 90.9149 330.821C90.9149 331.435 90.7372 331.954 90.3818 332.377C90.0265 332.799 89.5415 333.083 88.9268 333.227V333.011C89.6375 333.116 90.1897 333.385 90.5835 333.817C90.9773 334.249 91.1742 334.811 91.1742 335.503C91.1742 336.406 90.8668 337.107 90.2522 337.606C89.6471 338.096 88.8019 338.341 87.7167 338.341H84.1007ZM84.893 336.943H87.4862C88.1393 336.943 88.6195 336.819 88.9268 336.569C89.2341 336.31 89.3878 335.925 89.3878 335.416C89.3878 334.898 89.2341 334.514 88.9268 334.264C88.6195 334.014 88.1393 333.889 87.4862 333.889H84.893V336.943ZM84.893 332.492H87.2413C87.8751 332.492 88.3457 332.372 88.6531 332.132C88.97 331.882 89.1285 331.517 89.1285 331.037C89.1285 330.557 88.97 330.196 88.6531 329.956C88.3457 329.707 87.8751 329.582 87.2413 329.582H84.893V332.492ZM95.4965 338.485C94.9107 338.485 94.4256 338.379 94.0415 338.168C93.6573 337.947 93.3692 337.621 93.1771 337.188C92.9946 336.756 92.9034 336.218 92.9034 335.575V332.089C92.9034 331.781 92.9802 331.555 93.1339 331.411C93.2876 331.258 93.5085 331.181 93.7966 331.181C94.0847 331.181 94.3056 331.258 94.4593 331.411C94.6225 331.555 94.7042 331.781 94.7042 332.089V335.604C94.7042 336.103 94.805 336.473 95.0067 336.713C95.2084 336.953 95.5301 337.073 95.9719 337.073C96.4521 337.073 96.8459 336.91 97.1532 336.583C97.4606 336.247 97.6142 335.805 97.6142 335.258V332.089C97.6142 331.781 97.6911 331.555 97.8447 331.411C97.9984 331.258 98.2193 331.181 98.5074 331.181C98.7955 331.181 99.0164 331.258 99.1701 331.411C99.3334 331.555 99.415 331.781 99.415 332.089V337.534C99.415 338.149 99.1221 338.456 98.5362 338.456C98.2577 338.456 98.0416 338.379 97.888 338.226C97.7343 338.062 97.6575 337.832 97.6575 337.534V336.439L97.8591 336.871C97.6575 337.39 97.3501 337.789 96.9371 338.067C96.5338 338.346 96.0536 338.485 95.4965 338.485ZM102.263 338.442C101.974 338.442 101.753 338.355 101.6 338.182C101.446 338.009 101.369 337.769 101.369 337.462V332.175C101.369 331.858 101.446 331.618 101.6 331.455C101.753 331.282 101.974 331.195 102.263 331.195C102.551 331.195 102.772 331.282 102.925 331.455C103.088 331.618 103.17 331.858 103.17 332.175V337.462C103.17 337.769 103.093 338.009 102.94 338.182C102.786 338.355 102.56 338.442 102.263 338.442ZM102.263 329.856C101.926 329.856 101.662 329.774 101.47 329.611C101.288 329.438 101.196 329.202 101.196 328.905C101.196 328.597 101.288 328.362 101.47 328.199C101.662 328.036 101.926 327.954 102.263 327.954C102.608 327.954 102.872 328.036 103.055 328.199C103.237 328.362 103.329 328.597 103.329 328.905C103.329 329.202 103.237 329.438 103.055 329.611C102.872 329.774 102.608 329.856 102.263 329.856ZM107.527 338.485C106.73 338.485 106.13 338.259 105.726 337.808C105.323 337.347 105.121 336.674 105.121 335.791V328.977C105.121 328.679 105.198 328.453 105.352 328.3C105.505 328.146 105.726 328.069 106.014 328.069C106.303 328.069 106.523 328.146 106.677 328.3C106.84 328.453 106.922 328.679 106.922 328.977V335.704C106.922 336.146 107.013 336.473 107.196 336.684C107.388 336.895 107.657 337.001 108.003 337.001C108.079 337.001 108.151 337.001 108.219 337.001C108.286 336.991 108.353 336.982 108.42 336.972C108.555 336.953 108.646 336.991 108.694 337.087C108.742 337.174 108.766 337.356 108.766 337.635C108.766 337.875 108.718 338.062 108.622 338.197C108.526 338.331 108.367 338.413 108.147 338.442C108.051 338.451 107.95 338.461 107.844 338.47C107.738 338.48 107.633 338.485 107.527 338.485ZM112.44 338.485C111.825 338.485 111.282 338.336 110.812 338.038C110.351 337.741 109.991 337.318 109.731 336.771C109.472 336.213 109.342 335.56 109.342 334.811C109.342 334.053 109.472 333.404 109.731 332.866C109.991 332.319 110.351 331.896 110.812 331.599C111.282 331.301 111.825 331.152 112.44 331.152C113.026 331.152 113.535 331.296 113.967 331.584C114.409 331.872 114.706 332.252 114.86 332.722H114.702V328.977C114.702 328.679 114.778 328.453 114.932 328.3C115.086 328.146 115.307 328.069 115.595 328.069C115.883 328.069 116.104 328.146 116.257 328.3C116.421 328.453 116.502 328.679 116.502 328.977V337.534C116.502 337.832 116.425 338.062 116.272 338.226C116.118 338.379 115.897 338.456 115.609 338.456C115.321 338.456 115.1 338.379 114.946 338.226C114.793 338.062 114.716 337.832 114.716 337.534V336.41L114.874 336.843C114.73 337.342 114.437 337.741 113.996 338.038C113.554 338.336 113.035 338.485 112.44 338.485ZM112.944 337.116C113.299 337.116 113.611 337.03 113.88 336.857C114.149 336.684 114.356 336.43 114.5 336.093C114.654 335.748 114.73 335.32 114.73 334.811C114.73 334.043 114.567 333.472 114.241 333.097C113.914 332.713 113.482 332.521 112.944 332.521C112.589 332.521 112.276 332.607 112.008 332.78C111.739 332.943 111.527 333.198 111.374 333.544C111.23 333.88 111.158 334.302 111.158 334.811C111.158 335.57 111.321 336.146 111.647 336.54C111.974 336.924 112.406 337.116 112.944 337.116ZM124.76 338.485C124.251 338.485 123.795 338.389 123.391 338.197C122.998 337.995 122.686 337.726 122.455 337.39C122.234 337.054 122.124 336.674 122.124 336.252C122.124 335.733 122.258 335.325 122.527 335.027C122.796 334.72 123.233 334.499 123.838 334.365C124.443 334.23 125.255 334.163 126.273 334.163H126.993V335.2H126.287C125.692 335.2 125.216 335.229 124.861 335.287C124.506 335.344 124.251 335.445 124.097 335.589C123.953 335.724 123.881 335.916 123.881 336.165C123.881 336.482 123.992 336.742 124.213 336.943C124.434 337.145 124.741 337.246 125.135 337.246C125.452 337.246 125.73 337.174 125.97 337.03C126.22 336.876 126.417 336.67 126.561 336.41C126.705 336.151 126.777 335.853 126.777 335.517V333.86C126.777 333.38 126.671 333.035 126.46 332.823C126.249 332.612 125.893 332.506 125.394 332.506C125.115 332.506 124.813 332.54 124.486 332.607C124.169 332.674 123.833 332.79 123.478 332.953C123.295 333.039 123.132 333.063 122.988 333.025C122.854 332.986 122.748 332.91 122.671 332.794C122.594 332.67 122.556 332.535 122.556 332.391C122.556 332.247 122.594 332.108 122.671 331.973C122.748 331.829 122.878 331.724 123.06 331.656C123.502 331.474 123.924 331.344 124.328 331.267C124.741 331.191 125.115 331.152 125.452 331.152C126.143 331.152 126.71 331.258 127.151 331.469C127.603 331.68 127.939 332.002 128.16 332.434C128.381 332.857 128.491 333.404 128.491 334.077V337.534C128.491 337.832 128.419 338.062 128.275 338.226C128.131 338.379 127.925 338.456 127.656 338.456C127.387 338.456 127.176 338.379 127.022 338.226C126.878 338.062 126.806 337.832 126.806 337.534V336.843H126.921C126.854 337.179 126.719 337.472 126.518 337.721C126.326 337.961 126.081 338.149 125.783 338.283C125.485 338.418 125.144 338.485 124.76 338.485ZM131.292 338.456C131.004 338.456 130.783 338.379 130.63 338.226C130.476 338.062 130.399 337.832 130.399 337.534V332.089C130.399 331.791 130.476 331.565 130.63 331.411C130.783 331.258 130.999 331.181 131.278 331.181C131.556 331.181 131.773 331.258 131.926 331.411C132.08 331.565 132.157 331.791 132.157 332.089V333.068L131.998 332.708C132.209 332.199 132.536 331.815 132.978 331.555C133.429 331.287 133.938 331.152 134.505 331.152C135.072 331.152 135.537 331.258 135.902 331.469C136.267 331.68 136.541 332.002 136.723 332.434C136.906 332.857 136.997 333.395 136.997 334.048V337.534C136.997 337.832 136.92 338.062 136.767 338.226C136.613 338.379 136.392 338.456 136.104 338.456C135.816 338.456 135.59 338.379 135.427 338.226C135.273 338.062 135.196 337.832 135.196 337.534V334.134C135.196 333.587 135.091 333.188 134.879 332.938C134.678 332.689 134.361 332.564 133.929 332.564C133.4 332.564 132.978 332.732 132.661 333.068C132.354 333.395 132.2 333.832 132.2 334.379V337.534C132.2 338.149 131.897 338.456 131.292 338.456ZM146.369 338.485C145.572 338.485 144.885 338.336 144.309 338.038C143.733 337.741 143.286 337.318 142.969 336.771C142.662 336.223 142.508 335.575 142.508 334.826C142.508 334.096 142.657 333.457 142.955 332.91C143.262 332.362 143.68 331.935 144.208 331.628C144.746 331.311 145.356 331.152 146.038 331.152C146.537 331.152 146.984 331.234 147.378 331.397C147.781 331.56 148.122 331.796 148.401 332.103C148.689 332.41 148.905 332.785 149.049 333.227C149.202 333.659 149.279 334.149 149.279 334.696C149.279 334.869 149.217 335.003 149.092 335.099C148.977 335.186 148.809 335.229 148.588 335.229H143.963V334.192H148.012L147.781 334.408C147.781 333.966 147.714 333.596 147.579 333.299C147.455 333.001 147.267 332.775 147.018 332.622C146.777 332.458 146.475 332.377 146.11 332.377C145.707 332.377 145.361 332.473 145.073 332.665C144.794 332.847 144.578 333.111 144.424 333.457C144.28 333.793 144.208 334.197 144.208 334.667V334.768C144.208 335.556 144.391 336.146 144.756 336.54C145.13 336.924 145.678 337.116 146.398 337.116C146.648 337.116 146.926 337.087 147.234 337.03C147.551 336.963 147.848 336.852 148.127 336.699C148.328 336.583 148.506 336.535 148.66 336.554C148.814 336.564 148.934 336.617 149.02 336.713C149.116 336.809 149.174 336.929 149.193 337.073C149.212 337.208 149.183 337.347 149.106 337.491C149.039 337.635 148.919 337.76 148.746 337.865C148.41 338.077 148.021 338.235 147.579 338.341C147.147 338.437 146.744 338.485 146.369 338.485ZM151.707 338.456C151.419 338.456 151.198 338.379 151.045 338.226C150.891 338.062 150.814 337.832 150.814 337.534V332.089C150.814 331.791 150.891 331.565 151.045 331.411C151.198 331.258 151.415 331.181 151.693 331.181C151.972 331.181 152.188 331.258 152.341 331.411C152.495 331.565 152.572 331.791 152.572 332.089V333.14L152.413 332.708C152.605 332.228 152.903 331.848 153.307 331.57C153.71 331.291 154.19 331.152 154.747 331.152C155.314 331.152 155.78 331.287 156.145 331.555C156.51 331.824 156.764 332.237 156.908 332.794H156.706C156.899 332.285 157.215 331.887 157.657 331.599C158.099 331.301 158.608 331.152 159.184 331.152C159.722 331.152 160.164 331.258 160.51 331.469C160.865 331.68 161.129 332.002 161.302 332.434C161.475 332.857 161.561 333.395 161.561 334.048V337.534C161.561 337.832 161.48 338.062 161.316 338.226C161.163 338.379 160.942 338.456 160.654 338.456C160.366 338.456 160.145 338.379 159.991 338.226C159.837 338.062 159.761 337.832 159.761 337.534V334.12C159.761 333.582 159.669 333.188 159.487 332.938C159.314 332.689 159.016 332.564 158.594 332.564C158.123 332.564 157.753 332.732 157.484 333.068C157.215 333.395 157.081 333.851 157.081 334.437V337.534C157.081 337.832 157.004 338.062 156.85 338.226C156.697 338.379 156.476 338.456 156.188 338.456C155.9 338.456 155.674 338.379 155.511 338.226C155.357 338.062 155.28 337.832 155.28 337.534V334.12C155.28 333.582 155.189 333.188 155.006 332.938C154.834 332.689 154.541 332.564 154.128 332.564C153.657 332.564 153.287 332.732 153.018 333.068C152.75 333.395 152.615 333.851 152.615 334.437V337.534C152.615 338.149 152.313 338.456 151.707 338.456ZM166.971 338.485C166.174 338.485 165.487 338.336 164.911 338.038C164.335 337.741 163.888 337.318 163.571 336.771C163.264 336.223 163.11 335.575 163.11 334.826C163.11 334.096 163.259 333.457 163.557 332.91C163.864 332.362 164.282 331.935 164.81 331.628C165.348 331.311 165.958 331.152 166.64 331.152C167.139 331.152 167.586 331.234 167.979 331.397C168.383 331.56 168.724 331.796 169.002 332.103C169.29 332.41 169.506 332.785 169.651 333.227C169.804 333.659 169.881 334.149 169.881 334.696C169.881 334.869 169.819 335.003 169.694 335.099C169.579 335.186 169.41 335.229 169.19 335.229H164.565V334.192H168.613L168.383 334.408C168.383 333.966 168.316 333.596 168.181 333.299C168.056 333.001 167.869 332.775 167.619 332.622C167.379 332.458 167.077 332.377 166.712 332.377C166.308 332.377 165.963 332.473 165.674 332.665C165.396 332.847 165.18 333.111 165.026 333.457C164.882 333.793 164.81 334.197 164.81 334.667V334.768C164.81 335.556 164.993 336.146 165.357 336.54C165.732 336.924 166.279 337.116 167 337.116C167.25 337.116 167.528 337.087 167.835 337.03C168.152 336.963 168.45 336.852 168.729 336.699C168.93 336.583 169.108 336.535 169.262 336.554C169.415 336.564 169.535 336.617 169.622 336.713C169.718 336.809 169.775 336.929 169.795 337.073C169.814 337.208 169.785 337.347 169.708 337.491C169.641 337.635 169.521 337.76 169.348 337.865C169.012 338.077 168.623 338.235 168.181 338.341C167.749 338.437 167.346 338.485 166.971 338.485ZM172.309 338.456C172.011 338.456 171.781 338.379 171.618 338.226C171.464 338.062 171.387 337.832 171.387 337.534V332.089C171.387 331.791 171.464 331.565 171.618 331.411C171.771 331.258 171.987 331.181 172.266 331.181C172.544 331.181 172.761 331.258 172.914 331.411C173.068 331.565 173.145 331.791 173.145 332.089V332.996H173.001C173.135 332.42 173.399 331.983 173.793 331.685C174.187 331.387 174.71 331.21 175.363 331.152C175.565 331.133 175.723 331.186 175.839 331.311C175.964 331.426 176.036 331.608 176.055 331.858C176.074 332.098 176.016 332.295 175.882 332.449C175.757 332.593 175.565 332.679 175.306 332.708L174.989 332.737C174.403 332.794 173.961 332.977 173.663 333.284C173.366 333.582 173.217 334.005 173.217 334.552V337.534C173.217 337.832 173.14 338.062 172.986 338.226C172.833 338.379 172.607 338.456 172.309 338.456ZM180.281 341.078C179.762 341.078 179.258 341.03 178.768 340.934C178.288 340.838 177.851 340.689 177.457 340.487C177.275 340.391 177.15 340.276 177.083 340.142C177.025 340.007 177.006 339.868 177.025 339.724C177.054 339.589 177.111 339.469 177.198 339.364C177.294 339.258 177.409 339.186 177.544 339.148C177.678 339.109 177.817 339.128 177.961 339.205C178.384 339.416 178.783 339.551 179.157 339.609C179.541 339.676 179.868 339.709 180.137 339.709C180.78 339.709 181.26 339.551 181.577 339.234C181.904 338.927 182.067 338.466 182.067 337.851V336.554H182.197C182.053 337.044 181.75 337.438 181.289 337.736C180.838 338.024 180.324 338.168 179.748 338.168C179.114 338.168 178.562 338.024 178.091 337.736C177.62 337.438 177.256 337.025 176.996 336.497C176.737 335.969 176.607 335.354 176.607 334.653C176.607 334.125 176.679 333.649 176.823 333.227C176.977 332.794 177.188 332.425 177.457 332.117C177.736 331.81 178.067 331.575 178.451 331.411C178.845 331.239 179.277 331.152 179.748 331.152C180.343 331.152 180.862 331.301 181.304 331.599C181.755 331.887 182.048 332.271 182.182 332.751L182.038 333.111V332.089C182.038 331.791 182.115 331.565 182.269 331.411C182.432 331.258 182.653 331.181 182.932 331.181C183.22 331.181 183.441 331.258 183.594 331.411C183.748 331.565 183.825 331.791 183.825 332.089V337.635C183.825 338.778 183.522 339.637 182.917 340.214C182.312 340.79 181.433 341.078 180.281 341.078ZM180.238 336.799C180.612 336.799 180.934 336.713 181.203 336.54C181.472 336.367 181.678 336.122 181.822 335.805C181.976 335.479 182.053 335.095 182.053 334.653C182.053 333.99 181.89 333.472 181.563 333.097C181.236 332.713 180.795 332.521 180.238 332.521C179.863 332.521 179.541 332.607 179.272 332.78C179.003 332.953 178.792 333.198 178.639 333.515C178.494 333.832 178.422 334.211 178.422 334.653C178.422 335.316 178.586 335.839 178.912 336.223C179.239 336.607 179.681 336.799 180.238 336.799ZM189.243 338.485C188.445 338.485 187.759 338.336 187.182 338.038C186.606 337.741 186.16 337.318 185.843 336.771C185.535 336.223 185.382 335.575 185.382 334.826C185.382 334.096 185.531 333.457 185.828 332.91C186.136 332.362 186.553 331.935 187.082 331.628C187.619 331.311 188.229 331.152 188.911 331.152C189.411 331.152 189.857 331.234 190.251 331.397C190.654 331.56 190.995 331.796 191.274 332.103C191.562 332.41 191.778 332.785 191.922 333.227C192.076 333.659 192.153 334.149 192.153 334.696C192.153 334.869 192.09 335.003 191.965 335.099C191.85 335.186 191.682 335.229 191.461 335.229H186.837V334.192H190.885L190.654 334.408C190.654 333.966 190.587 333.596 190.453 333.299C190.328 333.001 190.141 332.775 189.891 332.622C189.651 332.458 189.348 332.377 188.983 332.377C188.58 332.377 188.234 332.473 187.946 332.665C187.667 332.847 187.451 333.111 187.298 333.457C187.154 333.793 187.082 334.197 187.082 334.667V334.768C187.082 335.556 187.264 336.146 187.629 336.54C188.004 336.924 188.551 337.116 189.271 337.116C189.521 337.116 189.8 337.087 190.107 337.03C190.424 336.963 190.722 336.852 191 336.699C191.202 336.583 191.379 336.535 191.533 336.554C191.687 336.564 191.807 336.617 191.893 336.713C191.989 336.809 192.047 336.929 192.066 337.073C192.085 337.208 192.057 337.347 191.98 337.491C191.912 337.635 191.792 337.76 191.62 337.865C191.283 338.077 190.894 338.235 190.453 338.341C190.02 338.437 189.617 338.485 189.243 338.485ZM194.552 338.456C194.264 338.456 194.043 338.379 193.889 338.226C193.736 338.062 193.659 337.832 193.659 337.534V332.089C193.659 331.791 193.736 331.565 193.889 331.411C194.043 331.258 194.259 331.181 194.538 331.181C194.816 331.181 195.032 331.258 195.186 331.411C195.339 331.565 195.416 331.791 195.416 332.089V333.068L195.258 332.708C195.469 332.199 195.796 331.815 196.237 331.555C196.689 331.287 197.198 331.152 197.765 331.152C198.331 331.152 198.797 331.258 199.162 331.469C199.527 331.68 199.801 332.002 199.983 332.434C200.166 332.857 200.257 333.395 200.257 334.048V337.534C200.257 337.832 200.18 338.062 200.026 338.226C199.873 338.379 199.652 338.456 199.364 338.456C199.075 338.456 198.85 338.379 198.687 338.226C198.533 338.062 198.456 337.832 198.456 337.534V334.134C198.456 333.587 198.35 333.188 198.139 332.938C197.937 332.689 197.62 332.564 197.188 332.564C196.66 332.564 196.237 332.732 195.921 333.068C195.613 333.395 195.46 333.832 195.46 334.379V337.534C195.46 338.149 195.157 338.456 194.552 338.456ZM205.422 338.485C204.682 338.485 204.039 338.336 203.491 338.038C202.944 337.731 202.521 337.299 202.223 336.742C201.926 336.185 201.777 335.532 201.777 334.782C201.777 334.216 201.859 333.712 202.022 333.27C202.195 332.818 202.44 332.439 202.757 332.132C203.073 331.815 203.458 331.575 203.909 331.411C204.36 331.239 204.865 331.152 205.422 331.152C205.739 331.152 206.08 331.195 206.445 331.282C206.819 331.368 207.17 331.512 207.496 331.714C207.65 331.81 207.751 331.925 207.799 332.06C207.847 332.194 207.856 332.333 207.828 332.477C207.799 332.612 207.736 332.732 207.64 332.838C207.554 332.934 207.443 332.996 207.309 333.025C207.174 333.044 207.026 333.011 206.862 332.924C206.651 332.799 206.435 332.708 206.214 332.65C205.993 332.583 205.782 332.55 205.58 332.55C205.263 332.55 204.985 332.602 204.745 332.708C204.504 332.804 204.298 332.948 204.125 333.14C203.962 333.323 203.837 333.553 203.751 333.832C203.664 334.11 203.621 334.432 203.621 334.797C203.621 335.508 203.789 336.069 204.125 336.482C204.471 336.886 204.956 337.087 205.58 337.087C205.782 337.087 205.988 337.059 206.2 337.001C206.421 336.943 206.641 336.852 206.862 336.727C207.026 336.641 207.17 336.612 207.294 336.641C207.429 336.67 207.539 336.737 207.626 336.843C207.712 336.939 207.765 337.059 207.784 337.203C207.804 337.337 207.784 337.472 207.727 337.606C207.679 337.741 207.583 337.851 207.439 337.937C207.122 338.13 206.785 338.269 206.43 338.355C206.075 338.442 205.739 338.485 205.422 338.485ZM210.94 341.049C210.729 341.049 210.556 340.992 210.421 340.876C210.287 340.771 210.205 340.627 210.176 340.444C210.157 340.262 210.191 340.07 210.277 339.868L211.257 337.693V338.442L208.635 332.377C208.549 332.165 208.52 331.968 208.549 331.786C208.577 331.603 208.664 331.459 208.808 331.354C208.962 331.239 209.168 331.181 209.427 331.181C209.648 331.181 209.826 331.234 209.96 331.339C210.095 331.435 210.215 331.623 210.32 331.901L212.265 336.756H211.833L213.821 331.887C213.927 331.618 214.052 331.435 214.196 331.339C214.34 331.234 214.532 331.181 214.772 331.181C214.983 331.181 215.151 331.239 215.276 331.354C215.401 331.459 215.478 331.603 215.507 331.786C215.536 331.959 215.502 332.151 215.406 332.362L211.905 340.358C211.78 340.627 211.646 340.809 211.502 340.905C211.358 341.001 211.17 341.049 210.94 341.049ZM222.191 338.456C221.903 338.456 221.677 338.379 221.514 338.226C221.36 338.062 221.283 337.832 221.283 337.534V332.65H220.62C220.39 332.65 220.212 332.593 220.087 332.477C219.963 332.353 219.9 332.185 219.9 331.973C219.9 331.752 219.963 331.584 220.087 331.469C220.212 331.354 220.39 331.296 220.62 331.296H221.802L221.283 331.772V331.282C221.283 330.293 221.533 329.553 222.032 329.063C222.532 328.564 223.252 328.271 224.193 328.184L224.683 328.141C224.875 328.122 225.029 328.156 225.144 328.242C225.259 328.319 225.336 328.425 225.374 328.559C225.413 328.684 225.418 328.813 225.389 328.948C225.36 329.082 225.298 329.202 225.202 329.308C225.115 329.404 225 329.457 224.856 329.467L224.654 329.481C224.107 329.519 223.708 329.659 223.458 329.899C223.209 330.139 223.084 330.504 223.084 330.994V331.527L222.853 331.296H224.308C224.539 331.296 224.717 331.354 224.841 331.469C224.966 331.584 225.029 331.752 225.029 331.973C225.029 332.185 224.966 332.353 224.841 332.477C224.717 332.593 224.539 332.65 224.308 332.65H223.084V337.534C223.084 338.149 222.786 338.456 222.191 338.456ZM228.685 338.485C228.099 338.485 227.614 338.379 227.23 338.168C226.846 337.947 226.558 337.621 226.366 337.188C226.183 336.756 226.092 336.218 226.092 335.575V332.089C226.092 331.781 226.169 331.555 226.323 331.411C226.476 331.258 226.697 331.181 226.985 331.181C227.273 331.181 227.494 331.258 227.648 331.411C227.811 331.555 227.893 331.781 227.893 332.089V335.604C227.893 336.103 227.994 336.473 228.195 336.713C228.397 336.953 228.719 337.073 229.161 337.073C229.641 337.073 230.035 336.91 230.342 336.583C230.649 336.247 230.803 335.805 230.803 335.258V332.089C230.803 331.781 230.88 331.555 231.033 331.411C231.187 331.258 231.408 331.181 231.696 331.181C231.984 331.181 232.205 331.258 232.359 331.411C232.522 331.555 232.604 331.781 232.604 332.089V337.534C232.604 338.149 232.311 338.456 231.725 338.456C231.446 338.456 231.23 338.379 231.077 338.226C230.923 338.062 230.846 337.832 230.846 337.534V336.439L231.048 336.871C230.846 337.39 230.539 337.789 230.126 338.067C229.722 338.346 229.242 338.485 228.685 338.485ZM235.451 338.456C235.163 338.456 234.942 338.379 234.789 338.226C234.635 338.062 234.558 337.832 234.558 337.534V332.089C234.558 331.791 234.635 331.565 234.789 331.411C234.942 331.258 235.158 331.181 235.437 331.181C235.715 331.181 235.931 331.258 236.085 331.411C236.239 331.565 236.316 331.791 236.316 332.089V333.068L236.157 332.708C236.368 332.199 236.695 331.815 237.137 331.555C237.588 331.287 238.097 331.152 238.664 331.152C239.23 331.152 239.696 331.258 240.061 331.469C240.426 331.68 240.7 332.002 240.882 332.434C241.065 332.857 241.156 333.395 241.156 334.048V337.534C241.156 337.832 241.079 338.062 240.926 338.226C240.772 338.379 240.551 338.456 240.263 338.456C239.975 338.456 239.749 338.379 239.586 338.226C239.432 338.062 239.355 337.832 239.355 337.534V334.134C239.355 333.587 239.25 333.188 239.038 332.938C238.837 332.689 238.52 332.564 238.088 332.564C237.559 332.564 237.137 332.732 236.82 333.068C236.512 333.395 236.359 333.832 236.359 334.379V337.534C236.359 338.149 236.056 338.456 235.451 338.456ZM245.774 338.485C245.159 338.485 244.616 338.336 244.146 338.038C243.685 337.741 243.324 337.318 243.065 336.771C242.806 336.213 242.676 335.56 242.676 334.811C242.676 334.053 242.806 333.404 243.065 332.866C243.324 332.319 243.685 331.896 244.146 331.599C244.616 331.301 245.159 331.152 245.774 331.152C246.359 331.152 246.868 331.296 247.301 331.584C247.742 331.872 248.04 332.252 248.194 332.722H248.035V328.977C248.035 328.679 248.112 328.453 248.266 328.3C248.419 328.146 248.64 328.069 248.929 328.069C249.217 328.069 249.438 328.146 249.591 328.3C249.754 328.453 249.836 328.679 249.836 328.977V337.534C249.836 337.832 249.759 338.062 249.606 338.226C249.452 338.379 249.231 338.456 248.943 338.456C248.655 338.456 248.434 338.379 248.28 338.226C248.127 338.062 248.05 337.832 248.05 337.534V336.41L248.208 336.843C248.064 337.342 247.771 337.741 247.329 338.038C246.888 338.336 246.369 338.485 245.774 338.485ZM246.278 337.116C246.633 337.116 246.945 337.03 247.214 336.857C247.483 336.684 247.69 336.43 247.834 336.093C247.987 335.748 248.064 335.32 248.064 334.811C248.064 334.043 247.901 333.472 247.574 333.097C247.248 332.713 246.816 332.521 246.278 332.521C245.922 332.521 245.61 332.607 245.341 332.78C245.072 332.943 244.861 333.198 244.707 333.544C244.563 333.88 244.491 334.302 244.491 334.811C244.491 335.57 244.655 336.146 244.981 336.54C245.308 336.924 245.74 337.116 246.278 337.116Z" fill="black"/>
<path d="M420.528 336.301L415.726 331.499L416.847 330.379L420.528 334.061L424.21 330.379L425.331 331.499L420.528 336.301Z" fill="black"/>
</svg>
